<svg width="714" height="452" viewBox="0 0 714 452" fill="none" xmlns="http://www.w3.org/2000/svg">
<path d="M357.294 420.4C296.494 420.4 252.094 362.8 252.094 276C252.094 189.2 296.494 131.6 357.294 131.6C417.694 131.6 462.094 189.2 462.094 276C462.094 362.8 417.694 420.4 357.294 420.4ZM357.294 412C393.294 412 420.094 357.6 420.094 276C420.094 194.4 393.294 140 357.294 140C320.894 140 294.094 194.4 294.094 276C294.094 357.6 320.894 412 357.294 412Z" fill="white"/>
<path d="M62.4191 297.849C62.4191 263.099 90.1612 253.834 117.902 253.834H151.34L77.3479 165.468C69.7737 156.423 76.1906 142.633 87.9739 142.633H159.516C167.177 142.633 173.386 148.857 173.386 156.533V346.499L215 304.799V156.533C215 146.297 206.72 138 196.505 138H39.6624C23.9523 138 15.3953 156.387 25.4945 168.447L93.1118 249.199H69.3545C20.8066 249.199 0 263.099 0 297.849C0 332.599 13.871 360.4 69.3545 360.4C145.645 360.4 141.021 416 141.021 416H145.645V388.2C145.645 346.499 62.4191 346.499 62.4191 297.849Z" fill="#F9F4EE"/>
<path d="M651.581 297.849C651.581 263.099 623.839 253.834 596.098 253.834H562.66L636.652 165.468C644.226 156.423 637.809 142.633 626.026 142.633H554.484C546.823 142.633 540.614 148.857 540.614 156.533V346.499L499 304.799V156.533C499 146.297 507.28 138 517.495 138H674.338C690.048 138 698.605 156.387 688.506 168.447L620.888 249.199H644.645C693.193 249.199 714 263.099 714 297.849C714 332.599 700.129 360.4 644.645 360.4C568.355 360.4 572.979 416 572.979 416H568.355V388.2C568.355 346.499 651.581 346.499 651.581 297.849Z" fill="#F9F4EE"/>
</svg>
