<svg width="61" height="60" viewBox="0 0 61 60" fill="none" xmlns="http://www.w3.org/2000/svg">
<path d="M58.8367 22.5012C58.6557 22.5447 58.4992 22.658 58.4015 22.8165C58.3038 22.975 58.2727 23.1656 58.3151 23.3469C58.8288 25.5273 59.089 27.7598 59.0904 30C59.0813 37.5798 56.0662 44.8466 50.7064 50.2063C45.3466 55.5661 38.0798 58.5812 30.5 58.5903C24.2744 58.6121 18.216 56.5772 13.2659 52.8017C13.9305 51.8107 14.1961 50.6051 14.0093 49.4266C13.8226 48.248 13.1973 47.1836 12.2589 46.4466C11.3205 45.7096 10.1381 45.3545 8.94892 45.4524C7.75969 45.5504 6.6514 46.0941 5.84617 46.9747C5.04094 47.8553 4.59825 49.0077 4.60682 50.2009C4.6154 51.3941 5.07461 52.54 5.89241 53.4089C6.71022 54.2779 7.82621 54.8056 9.01672 54.8865C10.2072 54.9673 11.3843 54.5952 12.3121 53.8448C17.5241 57.8573 23.9224 60.0225 30.5 59.9998C35.0313 59.9949 39.5028 58.9647 43.5795 56.9864C47.6562 55.0081 51.2323 52.1329 54.0401 48.5762C56.8478 45.0196 58.8143 40.8737 59.7922 36.4491C60.7702 32.0246 60.7342 27.4361 59.6871 23.0274C59.6661 22.9369 59.6274 22.8514 59.5732 22.7758C59.519 22.7003 59.4504 22.6362 59.3714 22.5873C59.2923 22.5384 59.2044 22.5056 59.1126 22.4908C59.0209 22.476 58.9271 22.4796 58.8367 22.5012Z" fill="#B46650" fill-opacity="0.4"/>
<path d="M1.90958 30C1.90989 24.9144 3.2666 19.9209 5.83984 15.5344C8.41309 11.1479 12.1097 7.52709 16.5486 5.0453C20.9875 2.5635 26.008 1.31055 31.0926 1.41561C36.1771 1.52067 41.1415 2.97995 45.4741 5.643C45.0269 6.59973 44.9554 7.68953 45.2736 8.69653C45.5918 9.70354 46.2766 10.5543 47.1924 11.0803C48.1082 11.6064 49.1881 11.7693 50.2183 11.5368C51.2485 11.3044 52.1538 10.6935 52.7549 9.82516C53.3561 8.95686 53.6092 7.89445 53.4641 6.84837C53.3191 5.80229 52.7865 4.84882 51.9718 4.17683C51.157 3.50484 50.1197 3.16332 49.0651 3.21993C48.0105 3.27653 47.0157 3.72713 46.2776 4.48247C41.733 1.6731 36.5207 0.128273 31.1792 0.00764897C25.8378 -0.112975 20.561 1.19498 15.8942 3.79634C11.2275 6.39769 7.34008 10.1981 4.63375 14.8047C1.92741 19.4114 0.500344 24.6572 0.500028 30C0.497502 31.8313 0.664224 33.659 0.99807 35.4596C1.02672 35.6218 1.11171 35.7688 1.23806 35.8745C1.36441 35.9802 1.52401 36.0379 1.68875 36.0375C1.73143 36.0375 1.77397 36.0328 1.81561 36.0234C1.99933 35.9902 2.16238 35.8855 2.26897 35.7323C2.37555 35.579 2.41697 35.3897 2.38413 35.2059C2.06741 33.4887 1.90856 31.7461 1.90958 30Z" fill="#B46650" fill-opacity="0.4"/>
<path d="M26.2713 25.3438V25.7666H34.7286V25.3438C34.6629 19.6304 26.3371 19.6304 26.2713 25.3438Z" fill="#B46650" fill-opacity="0.4"/>
<path d="M50.2102 15.3548C42.2791 15.4346 34.6488 10.5341 31.731 8.4198C31.3727 8.16097 30.942 8.02166 30.5 8.02166C30.058 8.02166 29.6272 8.16097 29.269 8.4198C26.3512 10.5341 18.702 15.4159 10.7898 15.3548C10.5088 15.352 10.23 15.4048 9.96948 15.5102C9.70898 15.6156 9.47189 15.7715 9.27188 15.9689C9.07187 16.1662 8.91288 16.4013 8.80406 16.6603C8.69525 16.9194 8.63875 17.1975 8.63784 17.4785C8.64254 28.3273 10.8132 43.8464 29.5462 53.328C29.8416 53.4785 30.1684 53.557 30.5 53.557C30.8315 53.557 31.1584 53.4785 31.4538 53.328C50.1867 43.8464 52.3574 28.3273 52.3621 17.4785C52.3579 16.9117 52.1289 16.3697 51.7255 15.9715C51.322 15.5733 50.777 15.3515 50.2102 15.3548ZM38.2525 36.8081C38.2525 37.7427 37.8812 38.639 37.2204 39.2998C36.5595 39.9607 35.6632 40.3319 34.7286 40.3319H26.2713C25.3367 40.3319 24.4404 39.9607 23.7796 39.2998C23.1187 38.639 22.7474 37.7427 22.7474 36.8081V29.2905C22.7478 28.6051 22.948 27.9348 23.3235 27.3615C23.6991 26.7881 24.2336 26.3368 24.8618 26.0626V25.3344C24.9463 17.7933 36.0536 17.7933 36.1382 25.3344V26.0626C36.7663 26.3368 37.3009 26.7881 37.6764 27.3615C38.052 27.9348 38.2522 28.6051 38.2525 29.2905V36.8081Z" fill="#B46650" fill-opacity="0.4"/>
<path d="M31.6539 32.2402C31.6435 32.1771 31.6465 32.1126 31.6626 32.0507C31.6788 31.9889 31.7079 31.9311 31.7479 31.8812C31.9053 31.6537 31.9974 31.3873 32.0143 31.1112C32.0312 30.835 31.9722 30.5594 31.8437 30.3143C31.7152 30.0693 31.5221 29.864 31.2854 29.7208C31.0486 29.5776 30.7772 29.5019 30.5005 29.5019C30.2237 29.5019 29.9523 29.5776 29.7155 29.7208C29.4788 29.864 29.2857 30.0693 29.1572 30.3143C29.0287 30.5594 28.9697 30.835 28.9866 31.1112C29.0035 31.3873 29.0956 31.6537 29.253 31.8812C29.2928 31.9306 29.3218 31.9877 29.338 32.049C29.3542 32.1103 29.3572 32.1744 29.347 32.2369C29.2366 32.7871 28.9241 34.3602 28.7037 35.4521C28.677 35.5883 28.6807 35.7287 28.7146 35.8633C28.7486 35.9979 28.8119 36.1233 28.9001 36.2305C28.9883 36.3377 29.0991 36.424 29.2246 36.4832C29.3502 36.5425 29.4873 36.5732 29.6261 36.5732H31.3739C31.513 36.5732 31.6503 36.5424 31.776 36.483C31.9017 36.4235 32.0126 36.3369 32.1008 36.2294C32.189 36.1219 32.2522 35.9961 32.286 35.8612C32.3197 35.7263 32.323 35.5856 32.2957 35.4493L31.6539 32.2402Z" fill="#B46650" fill-opacity="0.4"/>
</svg>
