<svg width="65" height="60" viewBox="0 0 65 60" fill="none" xmlns="http://www.w3.org/2000/svg">
<path fill-rule="evenodd" clip-rule="evenodd" d="M17.4856 4.58062V0H35.8994V4.58088L17.4856 4.58062ZM14.166 4.58088C12.5222 4.58088 11.1772 3.55018 11.1771 2.29044C11.1772 1.0307 12.5222 0 14.1659 0H15.6299V4.58062L14.166 4.58088ZM37.7551 0.0721065L44.0965 2.1909L37.7551 4.50228V0.0721065ZM40.3489 45.3175L51.5 36.2764C51.9972 35.8722 52.7006 35.891 53.1742 36.2877L64.3116 45.3175L62.6539 47.362L52.3302 38.9918L42.0066 47.362L40.3489 45.3175ZM46.7599 60H45.2011C44.5909 60 44.0965 59.5055 44.0965 58.8955V48.0566L52.3302 41.3808C52.3302 41.3808 58.2413 46.1733 60.5639 48.0564V58.8955C60.5639 59.5055 60.0695 60 59.4594 60H57.9007V49.1032C57.9007 48.5907 57.4853 48.1753 56.9729 48.1753H47.6877C47.1753 48.1753 46.7599 48.5907 46.7599 49.1032V60ZM48.6156 59.0722V50.031H56.0451V59.0722H48.6156ZM42.2408 51.7557H4.32603C2.32534 51.7557 0.688232 50.1186 0.688232 48.1179C0.688232 46.117 2.32521 44.4801 4.32603 44.4801H9.28945V11.0271H48.6924C50.7765 11.0271 52.449 12.7969 52.3235 14.884L52.3271 34.1262C51.6243 34.1264 50.917 34.3587 50.3292 34.8367C50.3313 34.8351 39.1802 43.876 39.1802 43.876C38.3841 44.5214 38.2621 45.69 38.9074 46.4861L40.5651 48.5307C40.8751 48.913 41.3242 49.1565 41.8137 49.2076C41.9569 49.2226 42.1001 49.2207 42.2408 49.2029V51.7557ZM38.7191 20.5395C38.7191 20.027 38.3037 19.6116 37.7913 19.6116H15.2272C14.7148 19.6116 14.2994 20.027 14.2994 20.5395V35.8076C14.2994 36.3201 14.7148 36.7355 15.2272 36.7355H27.195V41.4945C27.195 42.0069 27.6105 42.4223 28.1229 42.4223H37.7913C38.3037 42.4223 38.7191 42.0069 38.7191 41.4945V20.5395ZM23.9678 21.4673V30.0903H19.6175C19.1055 30.0903 18.6897 30.5061 18.6897 31.0181C18.6897 31.5303 19.1055 31.9459 19.6175 31.9459H24.8956C25.408 31.9459 25.8234 31.5305 25.8234 31.0181V21.4673H27.195V23.5345C27.195 24.0466 27.6107 24.4624 28.1229 24.4624C28.6349 24.4624 29.0507 24.0466 29.0507 23.5345V21.4673H36.8634V30.0903H29.0507V28.0232C29.0507 27.511 28.6349 27.0953 28.1229 27.0953C27.6107 27.0953 27.195 27.511 27.195 28.0232V31.0181C27.195 31.5305 27.6105 31.9459 28.1229 31.9459H36.8634V40.5666H29.0507V35.8076C29.0507 35.2952 28.6353 34.8798 28.1229 34.8798H16.1551V21.4673H23.9678ZM7.43377 7.38932V42.6245H4.32603C2.93427 42.6245 1.65902 43.149 0.688232 44.0101V11.0271C0.688232 9.04128 2.31116 7.38932 4.32603 7.38932H7.43377Z" fill="#B46650" fill-opacity="0.4"/>
</svg>
