<svg width="47" height="60" viewBox="0 0 47 60" fill="none" xmlns="http://www.w3.org/2000/svg">
<path d="M14.2156 46.3035C13.0678 46.3035 11.9991 45.7888 11.2837 44.8915L8.77211 41.7422L6.56242 40.678L0.793177 52.2818C0.503958 52.8637 0.536536 53.5539 0.879426 54.1058C1.2215 54.6566 1.82396 54.9915 2.47212 54.9915H2.47634L7.82781 54.9795L11.0482 59.2534C11.4044 59.726 11.9602 60.0001 12.5454 60C12.6028 60 12.6605 59.9974 12.7183 59.992C13.3654 59.9322 13.9354 59.5416 14.2246 58.9597L20.0779 47.1869L18.2436 46.3035H14.2156Z" fill="#B46650" fill-opacity="0.4"/>
<path d="M46.2071 52.2817L40.4379 40.6779L38.2282 41.7421L35.7166 44.8915C35.0012 45.7887 33.9326 46.3034 32.7847 46.3034H28.7565L26.9223 47.1867L32.7756 58.9596C33.0649 59.5414 33.6349 59.932 34.2819 59.9919C34.3397 59.9972 34.3973 59.9999 34.4548 59.9999C35.0399 59.9999 35.5958 59.7259 35.9519 59.2533L39.1724 54.9793L44.5238 54.9914H44.528C45.1762 54.9914 45.7787 54.6566 46.1207 54.1057C46.4636 53.5538 46.4963 52.8635 46.2071 52.2817Z" fill="#B46650" fill-opacity="0.4"/>
<path d="M32.7848 44.4285C33.3554 44.4285 33.8951 44.1687 34.2507 43.7226L37.0291 40.2386L41.044 38.3051C41.5581 38.0575 41.9314 37.5893 42.0584 37.0331L43.0501 32.6886L45.8285 29.2046C46.1843 28.7585 46.3175 28.1746 46.1905 27.6183L45.1989 23.274L46.1905 18.9295C46.3174 18.3731 46.1843 17.7894 45.8285 17.3431L43.0501 13.8593L42.0584 9.51479C41.9315 8.9585 41.5581 8.49034 41.044 8.24272L37.0291 6.30925L34.2507 2.82527C33.8949 2.37914 33.3554 2.11933 32.7848 2.11933H28.3287L24.3137 0.185625C23.7995 -0.0618749 23.2008 -0.0618749 22.6866 0.185625L18.6717 2.1191H14.2156C13.645 2.1191 13.1053 2.3789 12.7497 2.82503L9.97128 6.30901L5.95645 8.24248C5.44235 8.4901 5.06899 8.95826 4.94196 9.51455L3.95032 13.859L1.17193 17.3429C0.816145 17.789 0.682903 18.3729 0.809934 18.9293L1.80146 23.2737L0.809934 27.6181C0.683021 28.1744 0.816145 28.7582 1.17193 29.2044L3.95032 32.6883L4.94196 37.0328C5.06887 37.5891 5.44235 38.0573 5.95645 38.3049L9.97128 40.2384L12.7497 43.7223C13.1055 44.1685 13.645 44.4283 14.2156 44.4283H18.6717L22.6866 46.3617C22.9437 46.4855 23.2219 46.5474 23.5001 46.5474C23.7783 46.5474 24.0566 46.4855 24.3136 46.3617L28.3284 44.4283H32.7846L32.7848 44.4285ZM23.5002 39.6801C14.4538 39.6801 7.09398 32.3203 7.09398 23.2739C7.09398 14.2275 14.4538 6.86764 23.5002 6.86764C32.5466 6.86764 39.9064 14.2275 39.9064 23.2739C39.9064 32.3203 32.5466 39.6801 23.5002 39.6801Z" fill="#B46650" fill-opacity="0.4"/>
<path d="M23.5002 8.74264C15.4876 8.74264 8.96898 15.2613 8.96898 23.2739C8.96898 31.2864 15.4876 37.8051 23.5002 37.8051C31.5128 37.8051 38.0314 31.2864 38.0314 23.2739C38.0314 15.2613 31.5128 8.74264 23.5002 8.74264ZM23.8884 27.5758C23.5245 27.9398 23.0443 28.1251 22.5622 28.1251C22.1496 28.1251 21.7355 27.9895 21.3914 27.7142L16.7039 23.9642L19.0465 21.0361L22.4235 23.7377L27.7993 18.3618L30.4509 21.0134L23.8884 27.5759V27.5758Z" fill="#B46650" fill-opacity="0.4"/>
</svg>
