<svg width="61" height="60" viewBox="0 0 61 60" fill="none" xmlns="http://www.w3.org/2000/svg">
<path d="M48.1955 28.2419C41.4113 28.2419 35.8907 33.7625 35.8907 40.5467C35.8907 43.137 36.689 45.6159 38.2202 47.7428L46.7896 59.2962C47.1209 59.739 47.6427 60 48.1955 60H48.1973C48.75 60 49.2719 59.7374 49.6032 59.2944L58.5193 47.2346C59.8154 45.2434 60.5003 42.931 60.5003 40.5467C60.5003 33.7625 54.9797 28.2419 48.1955 28.2419ZM48.1955 45.8202C45.2876 45.8202 42.922 43.4546 42.922 40.5467C42.922 37.6388 45.2876 35.2732 48.1955 35.2732C51.1034 35.2732 53.469 37.6388 53.469 40.5467C53.469 43.4546 51.1034 45.8202 48.1955 45.8202Z" fill="#B46650" fill-opacity="0.4"/>
<path d="M3.16228 0.250133C2.61806 -0.0743622 1.94352 -0.0845576 1.39074 0.227867C0.839603 0.540175 0.499756 1.12389 0.499756 1.75729V37.031C0.499756 37.649 0.824251 38.2206 1.35289 38.5382L18.1952 48.5732V9.19994L3.16228 0.250133Z" fill="#B46650" fill-opacity="0.4"/>
<path d="M56.1315 10.7971L39.4064 0.761427V27.4044C41.9225 25.7163 44.9444 24.7262 48.1955 24.7262C51.4465 24.7262 54.4685 25.7163 56.9846 27.4044V12.3043C56.9846 11.6863 56.6601 11.1147 56.1315 10.7971Z" fill="#B46650" fill-opacity="0.4"/>
<path d="M35.8907 0.761427L21.7109 9.19971V48.5732L32.5018 42.1691C32.4463 41.6302 32.375 41.0939 32.375 40.5466C32.375 36.8181 33.7252 33.4324 35.8907 30.7255V0.761427Z" fill="#B46650" fill-opacity="0.4"/>
</svg>
