<svg width="69" height="60" viewBox="0 0 69 60" fill="none" xmlns="http://www.w3.org/2000/svg">
<path d="M37.7137 13.8794L14.7706 14.0309C13.8578 14.037 12.9849 14.4054 12.3438 15.0551C11.7027 15.7048 11.346 16.5826 11.3521 17.4953C11.3581 18.4081 11.7266 19.281 12.3763 19.9221C13.026 20.5632 13.9037 20.92 14.8165 20.9139L37.7596 20.7623C38.2115 20.7593 38.6584 20.6673 39.0748 20.4916C39.4912 20.3158 39.8689 20.0598 40.1863 19.7381C40.5038 19.4164 40.7547 19.0353 40.9249 18.6167C41.0951 18.198 41.1811 17.7499 41.1781 17.2979C41.1751 16.846 41.0831 16.3991 40.9074 15.9827C40.7316 15.5663 40.4756 15.1886 40.1539 14.8712C39.8322 14.5537 39.4511 14.3027 39.0324 14.1326C38.6137 13.9624 38.1656 13.8764 37.7137 13.8794Z" fill="#B46650" fill-opacity="0.4"/>
<path d="M54.8297 7.65817e-05L31.8866 0.151731C30.9739 0.157816 30.1009 0.526233 29.4598 1.17594C28.8187 1.82564 28.462 2.70341 28.4681 3.61614C28.4742 4.52887 28.8426 5.40181 29.4923 6.0429C30.142 6.684 31.0198 7.04075 31.9325 7.03466L54.8756 6.88301C55.7883 6.87692 56.6613 6.50851 57.3024 5.8588C57.9435 5.2091 58.3002 4.33133 58.2941 3.4186C58.288 2.50587 57.9196 1.63293 57.2699 0.991836C56.6202 0.350738 55.7424 -0.00600831 54.8297 7.65817e-05Z" fill="#B46650" fill-opacity="0.4"/>
<path d="M5.77597 41.6228C2.5458 41.6441 0.064737 45.3608 0.0860741 48.5434C0.091053 49.2967 0.244343 50.0416 0.537193 50.7355C0.830043 51.4295 1.25672 52.0591 1.79285 52.5882C2.32899 53.1172 2.96409 53.5356 3.66189 53.8192C4.35969 54.1029 5.10653 54.2463 5.85977 54.2413C6.613 54.2363 7.35787 54.083 8.05187 53.7902C8.74586 53.4973 9.37537 53.0707 9.90447 52.5345C10.4336 51.9984 10.8519 51.3633 11.1355 50.6655C11.4192 49.9677 11.5626 49.2209 11.5576 48.4676C11.5361 45.2851 9.00624 41.6014 5.77597 41.6228Z" fill="#B46650" fill-opacity="0.4"/>
<path d="M63.1325 41.2438C59.9023 41.2651 57.4214 44.9818 57.4426 48.1644C57.4526 49.6856 58.0666 51.1406 59.1494 52.2091C60.2321 53.2777 61.6951 53.8723 63.2163 53.8623C64.7375 53.8522 66.1924 53.2383 67.261 52.1555C68.3295 51.0727 68.9242 49.6098 68.9141 48.0886C68.8926 44.906 66.3628 41.2224 63.1325 41.2438Z" fill="#B46650" fill-opacity="0.4"/>
<path d="M66.6801 57.2809L64.3857 57.296L64.3399 50.4131C64.3389 50.2624 64.3082 50.1135 64.2496 49.9747C64.1911 49.8359 64.1057 49.71 63.9985 49.6041C63.8913 49.4983 63.7643 49.4147 63.6247 49.3579C63.4851 49.3012 63.3358 49.2725 63.1851 49.2735C63.0345 49.2745 62.8855 49.3051 62.7467 49.3637C62.6079 49.4223 62.482 49.5076 62.3762 49.6148C62.2704 49.7221 62.1867 49.8491 62.13 49.9887C62.0732 50.1282 62.0446 50.2776 62.0456 50.4282L62.0914 57.3112L56.3557 57.349L56.0368 9.0548C55.6571 9.11617 55.2744 9.15703 54.8904 9.17721L31.9473 9.32875C31.5619 9.33409 31.1771 9.29817 30.7994 9.2216L30.8153 11.6306L37.6982 11.5847C38.902 11.5768 40.0778 11.9478 41.0591 12.6452C42.0403 13.3427 42.7772 14.3311 43.1655 15.4707C43.5537 16.6102 43.5735 17.843 43.2222 18.9944C42.8708 20.1459 42.1661 21.1575 41.2078 21.8862L41.4432 57.4478L39.1489 57.4629L38.9212 22.9341C38.5445 23.0156 38.1602 23.0566 37.7748 23.0564L14.8323 23.2081C14.4469 23.2133 14.0621 23.1774 13.6843 23.1009L13.9125 57.6295L7.02958 57.6754L6.98369 50.7924C6.98168 50.4882 6.8589 50.1972 6.64234 49.9835C6.42579 49.7698 6.13321 49.6509 5.82896 49.6529C5.52472 49.6549 5.23373 49.7777 5.02002 49.9942C4.80631 50.2108 4.68737 50.5033 4.68938 50.8076L4.73527 57.6905L2.44095 57.7057C2.29031 57.7067 2.14133 57.7373 2.00253 57.7959C1.86374 57.8545 1.73783 57.9398 1.63201 58.047C1.4183 58.2636 1.29936 58.5561 1.30137 58.8604C1.30338 59.1646 1.42617 59.4556 1.64272 59.6693C1.85927 59.883 2.15185 60.002 2.4561 60L66.6954 59.5755C66.8461 59.5745 66.9951 59.5439 67.1339 59.4853C67.2727 59.4267 67.3986 59.3414 67.5044 59.2342C67.6102 59.127 67.6939 58.9999 67.7506 58.8604C67.8073 58.7208 67.836 58.5715 67.835 58.4208C67.834 58.2702 67.8034 58.1212 67.7448 57.9824C67.6862 57.8436 67.6009 57.7177 67.4937 57.6119C67.3864 57.506 67.2594 57.4224 67.1199 57.3656C66.9803 57.3089 66.8307 57.2799 66.6801 57.2809ZM52.8539 48.1947L50.5595 48.21C50.2553 48.212 49.9627 48.093 49.7462 47.8793C49.5296 47.6656 49.4068 47.3746 49.4048 47.0704C49.4028 46.7661 49.5217 46.4736 49.7355 46.257C49.9492 46.0405 50.2402 45.9177 50.5444 45.9157L52.8387 45.9005C52.9894 45.8995 53.1387 45.9282 53.2783 45.9849C53.4178 46.0417 53.5449 46.1253 53.6521 46.2312C53.7593 46.337 53.8447 46.4629 53.9032 46.6017C53.9618 46.7405 53.9924 46.8895 53.9934 47.0401C53.9944 47.1908 53.9657 47.3401 53.909 47.4797C53.8523 47.6192 53.7686 47.7463 53.6628 47.8535C53.557 47.9607 53.4311 48.046 53.2923 48.1046C53.1535 48.1632 53.0045 48.1937 52.8539 48.1947ZM52.8236 43.6061L50.5293 43.6212C50.3786 43.6222 50.2292 43.5935 50.0897 43.5368C49.9501 43.4801 49.8231 43.3964 49.7159 43.2906C49.6087 43.1848 49.5233 43.0589 49.4648 42.9201C49.4062 42.7813 49.3755 42.6323 49.3745 42.4817C49.3735 42.331 49.4022 42.1816 49.459 42.0421C49.5157 41.9025 49.5993 41.7755 49.7052 41.6683C49.811 41.561 49.9369 41.4757 50.0757 41.4171C50.2145 41.3586 50.3635 41.3279 50.5141 41.3269L52.8084 41.3117C53.1127 41.3096 53.4053 41.4286 53.6218 41.6423C53.8384 41.856 53.9612 42.1469 53.9632 42.4512C53.9652 42.7554 53.8463 43.048 53.6326 43.2646C53.4189 43.4812 53.1278 43.6041 52.8236 43.6061ZM52.7933 39.0175L50.499 39.0326C50.3483 39.0336 50.199 39.0049 50.0594 38.9482C49.9198 38.8915 49.7928 38.8078 49.6856 38.702C49.5784 38.5962 49.493 38.4702 49.4345 38.3315C49.3759 38.1927 49.3452 38.0437 49.3442 37.893C49.3433 37.7424 49.3719 37.593 49.4287 37.4535C49.4854 37.3139 49.5691 37.1869 49.6749 37.0797C49.7807 36.9724 49.9066 36.8871 50.0454 36.8285C50.1842 36.77 50.3332 36.7393 50.4838 36.7383L52.7781 36.7233C53.0824 36.7213 53.375 36.8402 53.5915 37.0539C53.8081 37.2676 53.9309 37.5586 53.9329 37.8628C53.9349 38.167 53.816 38.4596 53.6023 38.6762C53.3886 38.8928 53.0975 39.0155 52.7933 39.0175ZM52.7629 34.4289L50.4686 34.444C50.3179 34.445 50.1686 34.4163 50.029 34.3596C49.8894 34.3028 49.7624 34.2192 49.6552 34.1133C49.548 34.0075 49.4626 33.8816 49.4041 33.7428C49.3455 33.604 49.3148 33.4551 49.3138 33.3044C49.3129 33.1538 49.3415 33.0044 49.3983 32.8648C49.455 32.7253 49.5387 32.5983 49.6445 32.491C49.7503 32.3838 49.8762 32.2985 50.015 32.2399C50.1538 32.1813 50.3028 32.1507 50.4534 32.1497L52.7477 32.1344C53.052 32.1324 53.3446 32.2514 53.5611 32.4651C53.7777 32.6788 53.9005 32.9698 53.9025 33.274C53.9045 33.5783 53.7855 33.8708 53.5718 34.0874C53.3581 34.3039 53.0671 34.4268 52.7629 34.4289ZM52.7326 29.8402L50.4383 29.8554C50.2876 29.8564 50.1383 29.8277 49.9987 29.7709C49.8592 29.7142 49.7321 29.6306 49.6249 29.5247C49.5177 29.4189 49.4324 29.293 49.3738 29.1542C49.3152 29.0154 49.2846 28.8664 49.2836 28.7158C49.2826 28.5651 49.3113 28.4158 49.368 28.2762C49.4247 28.1367 49.5084 28.0096 49.6142 27.9024C49.72 27.7952 49.8459 27.7098 49.9847 27.6513C50.1235 27.5927 50.2725 27.5621 50.4231 27.5611L52.7175 27.5459C53.0217 27.5439 53.3143 27.6628 53.5308 27.8766C53.7474 28.0903 53.8702 28.3813 53.8722 28.6855C53.8742 28.9897 53.7553 29.2823 53.5415 29.4989C53.3278 29.7154 53.0368 29.8382 52.7326 29.8402ZM52.7022 25.2516L50.4079 25.2669C50.1036 25.2689 49.8111 25.1499 49.5945 24.9362C49.378 24.7225 49.2552 24.4315 49.2532 24.1273C49.2512 23.823 49.3701 23.5305 49.5838 23.3139C49.7975 23.0973 50.0885 22.9746 50.3927 22.9726L52.6871 22.9574C52.8377 22.9564 52.9871 22.9851 53.1266 23.0418C53.2662 23.0986 53.3932 23.1822 53.5004 23.288C53.6077 23.3939 53.693 23.5198 53.7516 23.6586C53.8101 23.7974 53.8408 23.9463 53.8418 24.097C53.8428 24.2476 53.8141 24.397 53.7574 24.5366C53.7006 24.6761 53.617 24.8031 53.5111 24.9104C53.4053 25.0176 53.2794 25.1029 53.1406 25.1615C53.0018 25.2201 52.8528 25.2506 52.7022 25.2516ZM52.6719 20.663L50.3776 20.6781C50.227 20.6791 50.0776 20.6504 49.938 20.5937C49.7985 20.5369 49.6715 20.4533 49.5642 20.3474C49.457 20.2416 49.3717 20.1157 49.3131 19.9769C49.2546 19.8381 49.2239 19.6891 49.2229 19.5385C49.2219 19.3878 49.2506 19.2385 49.3074 19.0989C49.3641 18.9594 49.4478 18.8323 49.5536 18.7251C49.6594 18.6179 49.7853 18.5326 49.9241 18.474C50.063 18.4155 50.2119 18.3848 50.3626 18.3838L52.6569 18.3687C52.9611 18.3667 53.2537 18.4856 53.4703 18.6993C53.6868 18.913 53.8096 19.204 53.8116 19.5083C53.8136 19.8125 53.6947 20.1051 53.481 20.3216C53.2673 20.5382 52.9762 20.661 52.6719 20.663ZM50.3317 13.7953L52.626 13.7802C52.7767 13.7792 52.926 13.8079 53.0656 13.8646C53.2052 13.9214 53.3322 14.005 53.4394 14.1108C53.5466 14.2167 53.6319 14.3426 53.6905 14.4814C53.7491 14.6202 53.7797 14.7692 53.7807 14.9198C53.7817 15.0705 53.753 15.2198 53.6963 15.3594C53.6395 15.4989 53.5558 15.6259 53.45 15.7332C53.3442 15.8404 53.2183 15.9257 53.0795 15.9843C52.9407 16.0428 52.7917 16.0735 52.6411 16.0745L50.3467 16.0897C50.1961 16.0907 50.0467 16.062 49.9072 16.0053C49.7676 15.9486 49.6406 15.8649 49.5334 15.7591C49.4261 15.6533 49.3408 15.5274 49.2822 15.3886C49.2237 15.2498 49.193 15.1008 49.192 14.9502C49.191 14.7995 49.2197 14.6501 49.2764 14.5106C49.3332 14.371 49.4168 14.244 49.5227 14.1368C49.6285 14.0295 49.7544 13.9442 49.8932 13.8856C50.032 13.8271 50.1811 13.7963 50.3317 13.7953ZM47.1182 48.2326L44.8239 48.2478C44.5196 48.2498 44.2271 48.1309 44.0105 47.9172C43.7939 47.7035 43.6712 47.4125 43.6692 47.1082C43.6671 46.804 43.7861 46.5114 43.9998 46.2949C44.2135 46.0783 44.5045 45.9555 44.8087 45.9535L47.103 45.9384C47.2537 45.9374 47.4031 45.9661 47.5426 46.0228C47.6822 46.0795 47.8092 46.1632 47.9164 46.269C48.0237 46.3748 48.109 46.5007 48.1676 46.6395C48.2261 46.7783 48.2568 46.9273 48.2578 47.078C48.2588 47.2286 48.2301 47.378 48.1734 47.5175C48.1166 47.6571 48.033 47.7841 47.9271 47.8913C47.8213 47.9986 47.6954 48.0839 47.5566 48.1425C47.4178 48.201 47.2688 48.2316 47.1182 48.2326ZM47.0878 43.644L44.7935 43.659C44.6428 43.66 44.4935 43.6313 44.3539 43.5746C44.2143 43.5178 44.0873 43.4342 43.9801 43.3283C43.8729 43.2225 43.7875 43.0966 43.729 42.9578C43.6704 42.819 43.6397 42.67 43.6388 42.5194C43.6378 42.3688 43.6664 42.2194 43.7232 42.0798C43.7799 41.9403 43.8636 41.8132 43.9694 41.706C44.0752 41.5988 44.2011 41.5135 44.3399 41.4549C44.4787 41.3963 44.6277 41.3657 44.7783 41.3647L47.0726 41.3495C47.3769 41.3475 47.6695 41.4665 47.886 41.6802C48.1026 41.8939 48.2253 42.1849 48.2273 42.4892C48.2293 42.7934 48.1104 43.086 47.8966 43.3025C47.6829 43.5191 47.392 43.642 47.0878 43.644ZM47.0575 39.0553L44.7632 39.0706C44.459 39.0726 44.1664 38.9537 43.9498 38.7399C43.7333 38.5262 43.6105 38.2352 43.6085 37.931C43.6065 37.6268 43.7254 37.3342 43.9391 37.1176C44.1528 36.9011 44.4438 36.7783 44.7481 36.7763L47.0424 36.7611C47.193 36.7601 47.3424 36.7888 47.4819 36.8456C47.6215 36.9023 47.7485 36.986 47.8557 37.0918C47.963 37.1976 48.0483 37.3235 48.1069 37.4623C48.1654 37.6011 48.1961 37.7501 48.1971 37.9007C48.1981 38.0514 48.1694 38.2007 48.1127 38.3403C48.0559 38.4799 47.9723 38.6069 47.8665 38.7141C47.7606 38.8213 47.6347 38.9067 47.4959 38.9652C47.3571 39.0238 47.2082 39.0543 47.0575 39.0553ZM47.0272 34.4667L44.7329 34.4818C44.4287 34.4838 44.1361 34.3649 43.9195 34.1512C43.703 33.9374 43.5802 33.6465 43.5782 33.3422C43.5762 33.038 43.6952 32.7454 43.9089 32.5288C44.1226 32.3123 44.4136 32.1895 44.7179 32.1875L47.0122 32.1723C47.1628 32.1713 47.3122 32.2 47.4518 32.2567C47.5913 32.3134 47.7183 32.3971 47.8256 32.5029C47.9328 32.6087 48.0181 32.7346 48.0767 32.8734C48.1353 33.0122 48.1659 33.1612 48.1669 33.3119C48.1679 33.4625 48.1392 33.6119 48.0825 33.7514C48.0258 33.891 47.9421 34.018 47.8363 34.1252C47.7305 34.2325 47.6046 34.3178 47.4658 34.3764C47.327 34.4349 47.1779 34.4657 47.0272 34.4667ZM46.9969 29.8781L44.7026 29.8933C44.3984 29.8953 44.1058 29.7764 43.8892 29.5627C43.6727 29.349 43.5499 29.058 43.5479 28.7538C43.5459 28.4495 43.6648 28.1569 43.8785 27.9404C44.0923 27.7238 44.3832 27.601 44.6875 27.599L46.9818 27.5839C47.1324 27.5829 47.2818 27.6116 47.4214 27.6683C47.5609 27.725 47.6879 27.8087 47.7952 27.9145C47.9024 28.0203 47.9877 28.1463 48.0463 28.2851C48.1049 28.4239 48.1355 28.5728 48.1365 28.7235C48.1375 28.8741 48.1088 29.0235 48.0521 29.163C47.9954 29.3026 47.9117 29.4296 47.8059 29.5369C47.7001 29.6441 47.5742 29.7294 47.4354 29.788C47.2966 29.8465 47.1476 29.8771 46.9969 29.8781ZM46.9665 25.2895L44.6722 25.3046C44.368 25.3066 44.0754 25.1877 43.8588 24.974C43.6423 24.7603 43.5195 24.4693 43.5174 24.1651C43.5154 23.8608 43.6343 23.5682 43.848 23.3517C44.0617 23.1351 44.3527 23.0123 44.657 23.0103L46.9513 22.995C47.1019 22.994 47.2513 23.0227 47.3909 23.0795C47.5304 23.1362 47.6574 23.2199 47.7647 23.3257C47.8719 23.4315 47.9572 23.5574 48.0158 23.6962C48.0744 23.835 48.105 23.984 48.106 24.1346C48.107 24.2853 48.0783 24.4346 48.0216 24.5742C47.9649 24.7138 47.8812 24.8408 47.7754 24.948C47.6695 25.0552 47.5436 25.1406 47.4048 25.1991C47.266 25.2577 47.1172 25.2885 46.9665 25.2895ZM46.9362 20.7008L44.6419 20.716C44.4913 20.717 44.3419 20.6883 44.2024 20.6316C44.0628 20.5749 43.9358 20.4912 43.8285 20.3854C43.7213 20.2796 43.636 20.1537 43.5774 20.0149C43.5188 19.8761 43.4882 19.7271 43.4872 19.5765C43.4862 19.4258 43.5148 19.2764 43.5716 19.1369C43.6283 18.9973 43.7119 18.8703 43.8178 18.7631C43.9236 18.6558 44.0495 18.5705 44.1883 18.5119C44.3271 18.4533 44.476 18.4227 44.6267 18.4217L46.921 18.4066C47.0716 18.4057 47.221 18.4343 47.3606 18.4911C47.5001 18.5478 47.6271 18.6315 47.7344 18.7373C47.8416 18.8431 47.9269 18.969 47.9855 19.1078C48.0441 19.2466 48.0747 19.3956 48.0757 19.5462C48.0767 19.6969 48.048 19.8462 47.9913 19.9858C47.9346 20.1254 47.8509 20.2524 47.7451 20.3596C47.6393 20.4668 47.5134 20.5522 47.3746 20.6107C47.2358 20.6693 47.0869 20.6998 46.9362 20.7008ZM43.4569 14.988C43.4549 14.6838 43.5739 14.3912 43.7876 14.1747C44.0013 13.9582 44.2923 13.8354 44.5965 13.8334L46.8908 13.8181C47.1951 13.8161 47.4877 13.9351 47.7042 14.1488C47.9208 14.3625 48.0435 14.6535 48.0455 14.9577C48.0476 15.262 47.9286 15.5545 47.7149 15.7711C47.5012 15.9877 47.2102 16.1104 46.906 16.1124L44.6117 16.1276C44.3075 16.1296 44.015 16.0108 43.7985 15.7972C43.5819 15.5836 43.4591 15.2922 43.4569 14.988ZM33.3374 46.0293L31.0431 46.0445C30.7389 46.0465 30.4463 45.9276 30.2297 45.7139C30.0131 45.5002 29.8903 45.2092 29.8883 44.905C29.8863 44.6007 30.0052 44.3081 30.2189 44.0916C30.4326 43.875 30.7236 43.7522 31.0278 43.7502L33.3222 43.735C33.4728 43.734 33.6222 43.7627 33.7617 43.8195C33.9013 43.8762 34.0283 43.9599 34.1355 44.0657C34.2428 44.1715 34.3281 44.2974 34.3867 44.4362C34.4452 44.575 34.4759 44.724 34.4769 44.8746C34.4779 45.0253 34.4492 45.1746 34.3925 45.3142C34.3357 45.4538 34.2521 45.5808 34.1462 45.688C34.0404 45.7952 33.9145 45.8806 33.7757 45.9391C33.6369 45.9977 33.4881 46.0284 33.3374 46.0293ZM33.3071 41.4407L31.0128 41.4559C30.7086 41.4579 30.416 41.339 30.1994 41.1253C29.9829 40.9116 29.8601 40.6206 29.858 40.3163C29.856 40.0121 29.9749 39.7195 30.1886 39.5029C30.4023 39.2864 30.6933 39.1636 30.9976 39.1616L33.2919 39.1463C33.5961 39.1443 33.8887 39.2632 34.1052 39.4769C34.3218 39.6907 34.4446 39.9816 34.4466 40.2859C34.4486 40.5901 34.3297 40.8827 34.116 41.0993C33.9022 41.3158 33.6114 41.4387 33.3071 41.4407ZM33.2768 36.8521L30.9825 36.8672C30.8319 36.8682 30.6825 36.8396 30.543 36.7828C30.4034 36.7261 30.2764 36.6424 30.1692 36.5366C30.0619 36.4308 29.9766 36.3049 29.918 36.1661C29.8595 36.0273 29.8288 35.8783 29.8278 35.7277C29.8268 35.577 29.8555 35.4276 29.9122 35.2881C29.969 35.1485 30.0526 35.0215 30.1584 34.9143C30.2643 34.8071 30.3902 34.7217 30.529 34.6632C30.6678 34.6046 30.8167 34.5739 30.9674 34.5729L33.2617 34.5578C33.4123 34.5568 33.5617 34.5855 33.7013 34.6422C33.8408 34.6989 33.9679 34.7826 34.0751 34.8884C34.1823 34.9942 34.2676 35.1202 34.3262 35.259C34.3848 35.3978 34.4154 35.5467 34.4164 35.6974C34.4174 35.848 34.3887 35.9974 34.332 36.1369C34.2753 36.2765 34.1916 36.4035 34.0858 36.5108C33.98 36.618 33.8541 36.7033 33.7153 36.7619C33.5765 36.8205 33.4275 36.8511 33.2768 36.8521ZM33.2464 32.2635L30.9521 32.2786C30.8015 32.2796 30.6521 32.2509 30.5126 32.1942C30.373 32.1375 30.246 32.0538 30.1388 31.948C30.0315 31.8422 29.9462 31.7163 29.8876 31.5775C29.8291 31.4387 29.7984 31.2897 29.7974 31.139C29.7964 30.9884 29.8251 30.839 29.8818 30.6995C29.9386 30.5599 30.0222 30.4329 30.128 30.3257C30.2339 30.2184 30.3598 30.1331 30.4986 30.0745C30.6374 30.016 30.7863 29.9853 30.937 29.9843L33.2313 29.9692C33.3819 29.9682 33.5313 29.9969 33.6709 30.0536C33.8104 30.1104 33.9374 30.194 34.0447 30.2999C34.1519 30.4057 34.2372 30.5316 34.2958 30.6704C34.3543 30.8092 34.385 30.9582 34.386 31.1088C34.387 31.2595 34.3583 31.4088 34.3015 31.5484C34.2448 31.6879 34.1611 31.8149 34.0553 31.9222C33.9495 32.0294 33.8236 32.1147 33.6848 32.1733C33.546 32.2318 33.3971 32.2625 33.2464 32.2635ZM30.9062 25.3958L33.2006 25.3807C33.3512 25.3797 33.5006 25.4084 33.6401 25.4651C33.7797 25.5218 33.9067 25.6055 34.0139 25.7113C34.1212 25.8171 34.2065 25.943 34.2651 26.0818C34.3236 26.2206 34.3543 26.3696 34.3553 26.5202C34.3563 26.6709 34.3276 26.8203 34.2709 26.9598C34.2141 27.0994 34.1305 27.2264 34.0246 27.3336C33.9188 27.4408 33.7929 27.5262 33.6541 27.5848C33.5153 27.6433 33.3663 27.674 33.2157 27.675L30.9214 27.6901C30.6171 27.6921 30.3246 27.5732 30.108 27.3595C29.8914 27.1458 29.7686 26.8548 29.7666 26.5506C29.7646 26.2463 29.8835 25.9538 30.0972 25.7372C30.3109 25.5206 30.602 25.3978 30.9062 25.3958ZM28.7413 44.9126C28.7433 45.2168 28.6244 45.5094 28.4107 45.7259C28.1971 45.9425 27.9061 46.0653 27.6019 46.0673L25.3076 46.0825C25.1569 46.0835 25.0075 46.0548 24.868 45.998C24.7284 45.9413 24.6014 45.8576 24.4942 45.7518C24.3869 45.646 24.3016 45.5201 24.243 45.3813C24.1845 45.2425 24.1538 45.0935 24.1528 44.9429C24.1518 44.7922 24.1805 44.6429 24.2372 44.5033C24.294 44.3637 24.3776 44.2367 24.4835 44.1295C24.5893 44.0223 24.7152 43.9369 24.854 43.8784C24.9928 43.8198 25.1418 43.7891 25.2924 43.7882L27.5867 43.773C27.8909 43.771 28.1835 43.89 28.4 44.1037C28.6166 44.3174 28.7393 44.6084 28.7413 44.9126ZM27.5712 41.4787L25.2769 41.494C24.9727 41.496 24.6801 41.3771 24.4635 41.1633C24.247 40.9496 24.1242 40.6587 24.1221 40.3544C24.1201 40.0502 24.239 39.7576 24.4527 39.541C24.6664 39.3245 24.9574 39.2017 25.2617 39.1996L27.556 39.1845C27.7066 39.1835 27.856 39.2122 27.9956 39.2689C28.1351 39.3257 28.2621 39.4093 28.3694 39.5151C28.4766 39.621 28.5619 39.7469 28.6205 39.8857C28.6791 40.0245 28.7097 40.1734 28.7107 40.3241C28.7117 40.4747 28.683 40.6241 28.6263 40.7637C28.5695 40.9032 28.4859 41.0302 28.3801 41.1375C28.2742 41.2447 28.1483 41.33 28.0095 41.3886C27.8707 41.4472 27.7219 41.4777 27.5712 41.4787ZM27.5409 36.8901L25.2466 36.9052C24.9424 36.9072 24.6498 36.7883 24.4332 36.5746C24.2167 36.3609 24.0939 36.0699 24.0919 35.7657C24.0898 35.4614 24.2087 35.1689 24.4225 34.9523C24.6362 34.7357 24.9271 34.6129 25.2314 34.6109L27.5257 34.5958C27.8299 34.5938 28.1225 34.7127 28.3391 34.9264C28.5556 35.1401 28.6784 35.4311 28.6804 35.7353C28.6824 36.0396 28.5635 36.3322 28.3498 36.5487C28.1361 36.7653 27.8452 36.8881 27.5409 36.8901ZM27.5107 32.3014L25.2164 32.3166C24.9121 32.3186 24.6195 32.1997 24.403 31.986C24.1864 31.7722 24.0636 31.4813 24.0616 31.177C24.0596 30.8728 24.1786 30.5802 24.3923 30.3636C24.606 30.1471 24.897 30.0243 25.2012 30.0223L27.4955 30.0071C27.7998 30.0051 28.0924 30.124 28.3089 30.3377C28.5255 30.5514 28.6483 30.8424 28.6503 31.1467C28.6523 31.4509 28.5334 31.7435 28.3197 31.9601C28.106 32.1766 27.8149 32.2994 27.5107 32.3014ZM25.1705 25.4339L27.4648 25.4186C27.6154 25.4176 27.7648 25.4463 27.9044 25.5031C28.0439 25.5598 28.1709 25.6435 28.2782 25.7493C28.3854 25.8551 28.4707 25.981 28.5293 26.1198C28.5879 26.2586 28.6185 26.4076 28.6195 26.5582C28.6205 26.7089 28.5918 26.8582 28.5351 26.9978C28.4783 27.1374 28.3947 27.2644 28.2889 27.3716C28.183 27.4788 28.0571 27.5642 27.9183 27.6227C27.7795 27.6813 27.6306 27.7119 27.4799 27.7129L25.1856 27.7281C25.035 27.7291 24.8856 27.7004 24.746 27.6437C24.6065 27.5869 24.4795 27.5033 24.3722 27.3974C24.265 27.2916 24.1797 27.1657 24.1211 27.0269C24.0625 26.8881 24.0319 26.7391 24.0309 26.5885C24.0299 26.4379 24.0586 26.2885 24.1153 26.1489C24.172 26.0094 24.2557 25.8823 24.3615 25.7751C24.4673 25.6679 24.5932 25.5826 24.732 25.524C24.8708 25.4654 25.0198 25.4349 25.1705 25.4339ZM23.0057 44.9504C23.0077 45.2547 22.8888 45.5472 22.6751 45.7638C22.4614 45.9803 22.1704 46.1031 21.8662 46.1052L19.5719 46.1203C19.2676 46.1223 18.9751 46.0034 18.7585 45.7897C18.542 45.576 18.4192 45.285 18.4172 44.9807C18.4152 44.6765 18.5341 44.3839 18.7478 44.1674C18.9615 43.9508 19.2525 43.828 19.5567 43.826L21.8511 43.8109C22.1553 43.8089 22.4478 43.9278 22.6644 44.1415C22.8809 44.3552 23.0037 44.6462 23.0057 44.9504ZM21.8356 41.5166L19.5413 41.5318C19.3906 41.5328 19.2412 41.5041 19.1017 41.4474C18.9621 41.3907 18.8351 41.307 18.7279 41.2012C18.5113 40.9875 18.3885 40.6965 18.3865 40.3922C18.3845 40.088 18.5035 39.7954 18.7172 39.5788C18.9309 39.3623 19.2219 39.2395 19.5261 39.2375L21.8204 39.2222C21.9711 39.2212 22.1204 39.2499 22.26 39.3067C22.3996 39.3634 22.5266 39.4471 22.6338 39.5529C22.741 39.6587 22.8264 39.7846 22.8849 39.9234C22.9435 40.0622 22.9742 40.2112 22.9752 40.3618C22.9761 40.5125 22.9475 40.6618 22.8907 40.8014C22.834 40.941 22.7503 41.068 22.6445 41.1752C22.5387 41.2824 22.4128 41.3678 22.274 41.4263C22.1352 41.4849 21.9862 41.5156 21.8356 41.5166ZM21.8053 36.9279L19.511 36.9431C19.2067 36.9451 18.9141 36.8261 18.6976 36.6124C18.481 36.3987 18.3583 36.1077 18.3562 35.8035C18.3542 35.4992 18.4732 35.2067 18.6869 34.9901C18.9006 34.7736 19.1916 34.6508 19.4958 34.6488L21.7901 34.6336C21.9408 34.6326 22.0902 34.6613 22.2297 34.718C22.3693 34.7748 22.4963 34.8584 22.6035 34.9643C22.7107 35.0701 22.7961 35.196 22.8547 35.3348C22.9132 35.4736 22.9439 35.6226 22.9449 35.7732C22.9459 35.9238 22.9172 36.0732 22.8604 36.2128C22.8037 36.3523 22.72 36.4794 22.6142 36.5866C22.5084 36.6938 22.3825 36.7791 22.2437 36.8377C22.1049 36.8963 21.9559 36.9269 21.8053 36.9279ZM21.775 32.3393L19.4807 32.3546C19.33 32.3556 19.1807 32.3269 19.0411 32.2701C18.9016 32.2134 18.7745 32.1297 18.6673 32.0239C18.4508 31.8102 18.328 31.5192 18.326 31.215C18.324 30.9107 18.4429 30.6182 18.6566 30.4016C18.8703 30.185 19.1613 30.0623 19.4655 30.0603L21.7599 30.0451C22.0641 30.0431 22.3567 30.162 22.5733 30.3757C22.7898 30.5894 22.9126 30.8804 22.9146 31.1846C22.9167 31.4889 22.7977 31.7815 22.584 31.998C22.3703 32.2146 22.0792 32.3373 21.775 32.3393ZM19.4348 25.4717L21.7291 25.4566C22.0334 25.4546 22.3259 25.5735 22.5425 25.7872C22.7591 26.0009 22.8819 26.2919 22.8839 26.5961C22.8859 26.9004 22.767 27.193 22.5533 27.4095C22.3396 27.6261 22.0486 27.7489 21.7444 27.7509L19.4501 27.7659C19.2994 27.7669 19.15 27.7382 19.0105 27.6815C18.8709 27.6248 18.7439 27.5411 18.6367 27.4353C18.5295 27.3295 18.4441 27.2036 18.3855 27.0648C18.327 26.926 18.2963 26.777 18.2953 26.6264C18.2943 26.4757 18.323 26.3263 18.3798 26.1868C18.4365 26.0472 18.5202 25.9202 18.626 25.813C18.7318 25.7058 18.8577 25.6204 18.9965 25.5618C19.1353 25.5033 19.2842 25.4727 19.4348 25.4717ZM29.9257 50.6403L23.0427 50.6862L23.0886 57.5692L20.7943 57.5843L20.7412 49.5542C20.7402 49.4036 20.7689 49.2542 20.8256 49.1146C20.8823 48.9751 20.966 48.848 21.0718 48.7408C21.1776 48.6336 21.3035 48.5483 21.4423 48.4897C21.5811 48.4311 21.7301 48.4005 21.8808 48.3995L31.058 48.3389C31.3622 48.3369 31.6548 48.4558 31.8714 48.6695C32.0879 48.8832 32.2107 49.1742 32.2127 49.4784L32.2657 57.5085L29.9714 57.5236L29.9257 50.6403Z" fill="#B46650" fill-opacity="0.4"/>
</svg>
