<svg width="53" height="60" viewBox="0 0 53 60" fill="none" xmlns="http://www.w3.org/2000/svg">
<path d="M24.8922 31.9113C23.2188 29.2383 22.3352 26.1586 22.3352 23.0027C22.3352 17.8992 24.6238 13.3195 28.2297 10.2375C27.1211 10.1133 25.9937 10.125 24.8852 10.282C22.0176 10.6863 19.4172 11.9859 17.3641 14.0391C13.7629 17.6402 12.5512 22.9617 14.1977 27.7465L11.2926 30.6504V34.2809H7.66211L5.89375 36.0504V39.6809H2.26211L0.601562 41.3414V49.5727H8.83281L22.4289 35.9766C24.5945 36.7195 26.9008 36.8824 29.1145 36.4828C27.441 35.243 26.0078 33.6949 24.8922 31.9113Z" fill="#B46650" fill-opacity="0.4"/>
<path d="M40.8824 9.84492V18.9645H37.3668V9.84492C30.8758 10.7074 25.8508 16.2785 25.8508 23.0027C25.8508 28.0957 28.757 32.7152 33.3039 34.9348V39.0961L35.8715 41.6637L33.3039 44.2313V46.732L35.8715 49.2996L33.3039 51.8672V54.3363L39.1246 60L44.9441 54.3363V34.9348C49.4922 32.7152 52.3984 28.0957 52.3984 23.0027C52.3984 16.2785 47.3734 10.7074 40.8824 9.84492Z" fill="#B46650" fill-opacity="0.4"/>
<path d="M40.8824 9.84492V8.49727C40.8824 3.81211 37.0703 0 32.3852 0C28.2625 0 24.816 2.95195 24.0484 6.85313C24.1633 6.83437 24.2781 6.8168 24.3941 6.80039C25.498 6.64453 26.623 6.6 27.7504 6.66914C28.4816 4.82344 30.284 3.51562 32.3852 3.51562C35.132 3.51562 37.3668 5.75039 37.3668 8.49727V9.84492C37.9422 9.76875 38.5293 9.72891 39.1246 9.72891C39.7199 9.72891 40.307 9.76875 40.8824 9.84492Z" fill="#B46650" fill-opacity="0.4"/>
</svg>
