<svg width="215" height="134" viewBox="0 0 215 134" fill="none" xmlns="http://www.w3.org/2000/svg">
<path d="M144.548 120.6V134H146.785C146.785 134 144.548 107.2 181.452 107.2C208.29 107.2 215 93.7996 215 77.0495C215 60.2994 204.935 53.5993 181.452 53.5993H169.959L202.668 14.6757C207.553 8.86278 203.414 0 195.815 0H119.946C115.005 0 111 3.99966 111 8.93328V80.3995L131.129 100.5V8.93328C131.129 5.23306 134.133 2.23325 137.839 2.23325H172.445C178.145 2.23325 181.249 8.88009 177.585 13.2402L141.794 55.8337H157.968C171.387 55.8337 184.807 60.2994 184.807 77.0495C184.807 100.5 144.548 100.5 144.548 120.6Z" fill="#F9F4EE"/>
<path d="M30.1934 77.0495C30.1934 60.2994 43.6129 55.8337 57.0319 55.8337H73.2062L37.4148 13.2398C33.751 8.8801 36.855 2.23325 42.5548 2.23325H77.1611C80.8671 2.23325 83.8704 5.23307 83.8704 8.93328V100.5L104 80.3995V8.93328C104 3.99928 99.9946 0 95.0534 0H19.1855C11.5862 0 7.44704 8.86279 12.3322 14.6757L45.0401 53.5993H33.5482C10.0646 53.5993 0 60.2994 0 77.0495C0 93.7997 6.7097 107.2 33.5482 107.2C70.4514 107.2 68.2149 134 68.2149 134H70.4514V120.6C70.4514 100.5 30.1934 100.5 30.1934 77.0495Z" fill="#F9F4EE"/>
</svg>
