<svg width="161" height="219" viewBox="0 0 161 219" fill="none" xmlns="http://www.w3.org/2000/svg">
<path d="M45.8375 197.1V219H49.4931C49.4931 219 45.8375 175.2 106.159 175.2C150.029 175.2 160.997 153.299 160.997 125.924C160.997 98.549 144.545 87.5988 106.159 87.5988H87.3742L140.839 23.9849C148.823 14.4847 142.058 0 129.636 0H5.62329C-2.45349 0 -9 6.53676 -9 14.5999V131.399L23.9022 164.25V14.5999C23.9022 8.55254 28.8128 3.64986 34.8699 3.64986H91.4374C100.754 3.64986 105.828 14.513 99.8392 21.6388L41.3351 91.2506H67.7728C89.7072 91.2506 111.643 98.549 111.643 125.924C111.643 164.25 45.8375 164.25 45.8375 197.1Z" fill="#F9F4EE" fill-opacity="0.1"/>
</svg>
