<svg width="175" height="110" viewBox="0 0 175 110" fill="none" xmlns="http://www.w3.org/2000/svg">
<path d="M117.578 98.28V109.2H119.401C119.401 109.2 117.578 87.3599 147.656 87.3599C169.531 87.3599 175 76.4398 175 62.7897C175 49.1396 166.797 43.6795 147.656 43.6795H138.29L164.949 11.9596C168.93 7.22252 165.557 0 159.363 0H97.526C93.4987 0 90.2344 3.25943 90.2344 7.27997V65.5197L106.64 81.8999V7.27997C106.64 4.26456 109.089 1.81993 112.109 1.81993H140.316C144.961 1.81993 147.491 7.23662 144.505 10.7898L115.333 45.5004H128.516C139.453 45.5004 150.391 49.1396 150.391 62.7897C150.391 81.8999 117.578 81.8999 117.578 98.28Z" fill="#B46650" fill-opacity="0.2"/>
<path d="M24.6093 62.7897C24.6093 49.1396 35.5469 45.5004 46.4841 45.5004H59.667L30.4951 10.7895C27.5089 7.23662 30.0388 1.81993 34.6845 1.81993H62.8905C65.9111 1.81993 68.359 4.26456 68.359 7.27997V81.8999L84.7657 65.5197V7.27997C84.7657 3.25911 81.5011 0 77.4737 0H15.6372C9.44339 0 6.06974 7.22252 10.0514 11.9596L36.7102 43.6795H27.3436C8.20318 43.6795 0 49.1396 0 62.7897C0 76.4398 5.46878 87.3599 27.3436 87.3599C57.4217 87.3599 55.5989 109.2 55.5989 109.2H57.4217V98.28C57.4217 81.8999 24.6093 81.8999 24.6093 62.7897Z" fill="#B46650" fill-opacity="0.2"/>
</svg>
