<svg width="129" height="98" viewBox="0 0 129 98" fill="none" xmlns="http://www.w3.org/2000/svg">
<g clip-path="url(#clip0_34_2399)">
<path d="M76.9771 41.2946V45.883H77.743C77.743 45.883 76.9771 36.7063 89.6152 36.7063C98.8065 36.7063 101.104 32.118 101.104 26.3825C101.104 20.6471 97.6575 18.353 89.6152 18.353H85.6795L96.881 5.02511C98.5538 3.03471 97.1365 0 94.534 0H68.5518C66.8596 0 65.488 1.36952 65.488 3.05885V27.5296L72.3814 34.4121V3.05885C72.3814 1.79186 73.4103 0.764687 74.6793 0.764687H86.5308C88.4827 0.764687 89.5458 3.04064 88.2911 4.53357L76.0338 19.118H81.5728C86.1683 19.118 90.7642 20.6471 90.7642 26.3825C90.7642 34.4121 76.9771 34.4121 76.9771 41.2946Z" fill="#F9F4EE"/>
<path d="M37.9141 26.3825C37.9141 20.6471 42.5098 19.118 47.1054 19.118H52.6445L40.3872 4.53344C39.1325 3.04064 40.1955 0.764687 42.1475 0.764687H53.9989C55.2681 0.764687 56.2966 1.79186 56.2966 3.05885V34.4121L63.1903 27.5296V3.05885C63.1903 1.36939 61.8186 0 60.1264 0H34.1443C31.5418 0 30.1243 3.03471 31.7973 5.02511L42.9986 18.353H39.063C31.0207 18.353 27.574 20.6471 27.574 26.3825C27.574 32.118 29.8718 36.7063 39.063 36.7063C51.7011 36.7063 50.9351 45.883 50.9351 45.883H51.7011V41.2946C51.7011 34.4121 37.9141 34.4121 37.9141 26.3825Z" fill="#F9F4EE"/>
<path d="M12.9655 68.6673V68.4705C16.6995 68.4705 19.3666 65.7566 19.3666 62.1385C19.3666 58.2845 17.5609 55.0596 10.1345 55.0596H0V82.5893H11.2427C18.9558 82.5893 21.2126 78.8922 21.2126 75.3136C21.2126 71.9312 19.3666 68.6673 12.9655 68.6673ZM4.34926 55.9249H10.6681C13.3351 55.9249 15.0584 58.9134 15.0584 61.981C15.0584 65.1276 13.2529 68.3526 10.6681 68.3526H4.30819L4.34926 55.9249ZM10.7091 81.724H4.34926V69.2179H11.0781C14.3199 69.2179 16.5761 72.1676 16.5761 75.392C16.5761 78.4206 14.4838 81.724 10.7091 81.724Z" fill="#F9F4EE"/>
<path d="M34.2309 55.0596L21.5938 82.5895H28.7329L28.3227 81.8419C26.9279 79.4823 26.4767 76.4147 27.0095 73.6619H41.1238L44.6116 82.5895H49.7811L38.2516 55.0596H34.2309ZM27.2146 72.7966C27.3791 72.2855 27.5432 71.7739 27.7893 71.3023L34.4359 56.5538L34.7232 57.144L40.7957 72.7966H27.2146Z" fill="#F9F4EE"/>
<path d="M70.6588 82.5893H75.0485V55.0596H70.6588V67.8804H56.7085V55.0596H52.3594V82.5893H56.7085V68.7457H70.6588V82.5893Z" fill="#F9F4EE"/>
<path d="M94.2868 55.0596H90.2661L77.6289 82.5895H84.768L84.3579 81.8419C82.9631 79.4823 82.5117 76.4147 83.0447 73.6619H97.1588L100.647 82.5895H105.816L94.2868 55.0596ZM83.2498 72.7966C83.4143 72.2855 83.5782 71.7739 83.8243 71.3023L90.471 56.5538L90.7584 57.144L96.8309 72.7966H83.2498Z" fill="#F9F4EE"/>
<path d="M118.504 71.6954C129.827 71.2233 130.525 55.0596 117.97 55.0596H108.41V82.5893H112.718V71.6954H113.867C119.283 71.6954 122.893 78.1453 123.427 82.5893H128.679C126.915 77.5158 124.248 72.6392 118.504 71.6954ZM112.718 70.8301V55.9249H117.847C124.945 55.9249 124.329 70.8301 117.888 70.8301H112.718Z" fill="#F9F4EE"/>
<path d="M26.0072 94.4571C26.2019 94.1247 26.299 93.7413 26.299 93.3085C26.299 92.9015 26.2178 92.5412 26.0557 92.2278C25.8937 91.9143 25.6489 91.6703 25.3216 91.4957C24.9939 91.3216 24.5839 91.2344 24.0909 91.2344H20.4336V97.8838H21.8829V95.4605H23.7405L24.918 97.8838H26.5227L25.1611 95.218C25.5307 95.0435 25.8125 94.79 26.0072 94.4571ZM24.5775 94.05C24.415 94.2278 24.188 94.3167 23.8962 94.3167H21.8829V92.4071H23.8962C24.0972 92.4071 24.2661 92.4428 24.4023 92.5139C24.5385 92.5849 24.6419 92.6901 24.7137 92.8289C24.7849 92.9677 24.8203 93.1339 24.8203 93.328C24.8203 93.6319 24.7395 93.8722 24.5775 94.05Z" fill="#F9F4EE"/>
<path d="M32.8343 95.0728H36.2583V93.8995H32.8343V92.4164H36.7058V91.2341H31.375V97.8837H36.7639V96.6914H32.8343V95.0728Z" fill="#F9F4EE"/>
<path d="M46.5914 94.5731C46.3973 94.428 46.1767 94.307 45.9301 94.2097C45.6837 94.1129 45.4303 94.0288 45.1712 93.9578C44.9121 93.8868 44.6588 93.8221 44.4123 93.7638C44.1659 93.7059 43.9442 93.6397 43.7463 93.5655C43.5485 93.4908 43.3927 93.404 43.2792 93.3036C43.1659 93.2036 43.1094 93.0759 43.1094 92.9207C43.1094 92.785 43.1595 92.6673 43.2598 92.5668C43.3606 92.4668 43.5062 92.3906 43.6978 92.3391C43.8888 92.2876 44.1211 92.2613 44.3933 92.2613C44.6462 92.2613 44.8662 92.297 45.0546 92.368C45.2426 92.4396 45.3887 92.5363 45.4921 92.6588C45.5961 92.7819 45.6479 92.9302 45.6479 93.1049V93.182H47.0585V93.0659C47.0585 92.7304 46.9888 92.4396 46.8495 92.1934C46.7096 91.9483 46.517 91.7443 46.2706 91.5828C46.0241 91.4215 45.7387 91.3036 45.4145 91.229C45.09 91.1548 44.7465 91.1174 44.3833 91.1174C43.9943 91.1174 43.6344 91.1548 43.3035 91.229C42.9732 91.3036 42.6814 91.4182 42.4281 91.5734C42.1751 91.7285 41.9788 91.9257 41.8395 92.1646C41.7003 92.4037 41.6305 92.6878 41.6305 93.0175C41.6305 93.3278 41.6892 93.5929 41.8058 93.8126C41.9224 94.0319 42.0782 94.2134 42.2723 94.3554C42.4671 94.4973 42.6876 94.6188 42.9342 94.7188C43.1806 94.8193 43.4334 94.9029 43.6931 94.9708C43.9522 95.0385 44.205 95.1048 44.4514 95.1695C44.6978 95.2342 44.9201 95.3051 45.118 95.383C45.3154 95.4603 45.471 95.5539 45.585 95.6638C45.698 95.7737 45.755 95.9158 45.755 96.0903C45.755 96.187 45.737 96.2745 45.7016 96.3523C45.6657 96.4296 45.6103 96.4974 45.536 96.5557C45.4616 96.6136 45.3675 96.664 45.2542 96.7061C45.1407 96.7482 45.0108 96.7803 44.8652 96.8029C44.719 96.8255 44.5522 96.8365 44.3638 96.8365C44.072 96.8365 43.816 96.8013 43.5954 96.7304C43.3747 96.6594 43.208 96.5526 43.0945 96.41C42.9811 96.2681 42.924 96.0934 42.924 95.8868V95.7995C42.924 95.7674 42.9273 95.7416 42.9342 95.7222H41.4944C41.4876 95.7416 41.4844 95.769 41.4844 95.8042V95.9062C41.4844 96.2812 41.561 96.5994 41.7135 96.8608C41.8655 97.1226 42.0765 97.3394 42.3457 97.5103C42.6144 97.6817 42.924 97.8064 43.2745 97.8837C43.6244 97.961 43.9943 97.9999 44.3833 97.9999C44.9342 97.9999 45.424 97.9289 45.852 97.7868C46.28 97.6449 46.6172 97.4183 46.8638 97.1079C47.1102 96.7982 47.2337 96.3875 47.2337 95.8773C47.2337 95.5802 47.1751 95.3246 47.0585 95.1112C46.9419 94.8981 46.7861 94.7188 46.5914 94.5731Z" fill="#F9F4EE"/>
<path d="M53.7227 91.2341H52.2734V97.8837H53.7227V91.2341Z" fill="#F9F4EE"/>
<path d="M63.564 91.593C63.078 91.3538 62.488 91.2344 61.794 91.2344H59.0703V97.8838H61.794C62.488 97.8838 63.078 97.7644 63.564 97.5251C64.0506 97.2864 64.4253 96.921 64.6877 96.4297C64.9504 95.9391 65.0819 95.3154 65.0819 94.5591C65.0819 93.7966 64.9504 93.1712 64.6877 92.6832C64.4253 92.1957 64.0506 91.8318 63.564 91.593ZM63.5836 94.7042C63.5836 95.034 63.5451 95.3232 63.467 95.572C63.3894 95.8207 63.2759 96.0273 63.1265 96.1926C62.9772 96.3571 62.7893 96.4818 62.5623 96.5654C62.3355 96.6496 62.0758 96.6917 61.784 96.6917H60.5194V92.4165H61.784C62.0758 92.4165 62.3355 92.4602 62.5623 92.5475C62.7893 92.6348 62.9772 92.761 63.1265 92.9256C63.2759 93.0903 63.3894 93.2975 63.467 93.5462C63.5451 93.795 63.5836 94.0841 63.5836 94.4134V94.7042Z" fill="#F9F4EE"/>
<path d="M71.5804 95.0728H75.0044V93.8995H71.5804V92.4164H75.4519V91.2341H70.1211V97.8837H75.51V96.6914H71.5804V95.0728Z" fill="#F9F4EE"/>
<path d="M85.0858 94.8203V95.1064V95.4314H85.0373C85.0177 95.3861 84.9818 95.3246 84.9301 95.2468C84.8784 95.1695 84.823 95.0906 84.7649 95.0096C84.7063 94.9286 84.6578 94.866 84.6187 94.8203L81.9341 91.2341H80.6016V97.8837H81.9731V94.2098V93.9431V93.6575H82.0216C82.0539 93.7154 82.1055 93.7996 82.1774 93.9094C82.2486 94.0193 82.3167 94.1192 82.3815 94.2098L85.1248 97.8837H86.4573V91.2341H85.0858V94.8203Z" fill="#F9F4EE"/>
<path d="M93.2034 93.2553C93.3299 92.9418 93.5279 92.7041 93.7971 92.5427C94.0663 92.3812 94.4082 92.3003 94.823 92.3003C95.128 92.3003 95.3957 92.357 95.6258 92.4701C95.8558 92.5831 96.0342 92.7462 96.1609 92.9597C96.287 93.1727 96.3503 93.4347 96.3503 93.7449H97.8096C97.8096 93.1569 97.6781 92.6689 97.4153 92.2808C97.153 91.8932 96.7947 91.6024 96.3409 91.4083C95.8864 91.2148 95.3745 91.1174 94.8035 91.1174C93.7596 91.1174 92.9506 91.4004 92.3769 91.9657C91.8027 92.5316 91.5156 93.3957 91.5156 94.559C91.5156 95.3474 91.6438 95.9967 91.9003 96.5074C92.1563 97.0181 92.5305 97.3942 93.0234 97.6366C93.5163 97.8789 94.1095 97.9999 94.8035 97.9999C95.3872 97.9999 95.906 97.9047 96.3603 97.7138C96.8143 97.5235 97.1689 97.2342 97.4254 96.8466C97.6813 96.4586 97.8096 95.9711 97.8096 95.3831H96.4089C96.4089 95.6928 96.344 95.9548 96.2141 96.1682C96.0843 96.3813 95.8996 96.5427 95.6595 96.6526C95.4198 96.7625 95.1375 96.8172 94.8135 96.8172C94.3982 96.8172 94.0594 96.7383 93.7971 96.58C93.5342 96.4218 93.3379 96.1861 93.2086 95.8721C93.0788 95.5587 93.0139 95.1696 93.0139 94.7041V94.4038C93.0139 93.9516 93.0772 93.5687 93.2034 93.2553Z" fill="#F9F4EE"/>
<path d="M104.311 95.0728H107.735V93.8995H104.311V92.4164H108.182V91.2341H102.852V97.8837H108.24V96.6914H104.311V95.0728Z" fill="#F9F4EE"/>
</g>
<defs>
<clipPath id="clip0_34_2399">
<rect width="128.678" height="98" fill="white"/>
</clipPath>
</defs>
</svg>
