<svg width="253" height="53" viewBox="0 0 253 53" fill="none" xmlns="http://www.w3.org/2000/svg">
<path d="M71.1914 21.1739H66.6473L79.5007 5.78261C81.4049 3.47826 79.8036 0 76.8175 0H46.9993C45.0518 0 43.4938 1.56522 43.4938 3.52174V31.7826L51.4136 39.7391V3.52174C51.4136 2.04348 52.5821 0.869565 54.0535 0.869565H67.6427C69.8931 0.869565 71.1049 3.47826 69.6767 5.21739L55.6115 22.0435H61.9733C67.2532 22.0435 72.533 23.8261 72.533 30.4348C72.533 39.6957 56.7367 39.6957 56.7367 47.6522V52.9565H57.6023C57.6023 52.9565 56.7367 42.3478 71.2347 42.3478C81.7944 42.3478 84.4343 37.0435 84.4343 30.4348C84.4343 23.8261 80.4095 21.1739 71.1914 21.1739Z" fill="#F9F4EE"/>
<path d="M37.3484 0H7.53028C4.54413 0 2.89959 3.52174 4.84707 5.78261L17.7005 21.1739H13.1996C3.93825 21.1739 0 23.8261 0 30.4783C0 37.087 2.63993 42.3913 13.1996 42.3913C27.6976 42.3913 26.832 53 26.832 53H27.6976V47.6956C27.6976 39.7391 11.9013 39.7391 11.9013 30.4783C11.9013 23.8696 17.1812 22.087 22.461 22.087H28.8228L14.7143 5.21739C13.2862 3.47826 14.4979 0.869565 16.7484 0.869565H30.3375C31.8089 0.869565 32.9774 2.04348 32.9774 3.52174V39.6957L40.8972 31.7391V3.47826C40.8539 1.56522 39.2959 0 37.3484 0Z" fill="#F9F4EE"/>
<path d="M117.715 30.7826H110.401V16.3478H118.147C121.869 16.3478 124.466 19.7391 124.466 23.4783C124.466 26.9565 122.042 30.7826 117.715 30.7826ZM110.444 1H117.715C120.787 1 122.735 4.43478 122.735 8C122.735 11.6522 120.658 15.3478 117.715 15.3478H110.401L110.444 1ZM120.311 15.6957V15.4783C124.596 15.4783 127.669 12.3478 127.669 8.17391C127.669 3.73913 125.591 0 117.066 0H105.424V31.7826H118.321C127.149 31.7826 129.746 27.5217 129.746 23.3913C129.789 19.4783 127.669 15.6957 120.311 15.6957Z" fill="#F9F4EE"/>
<path d="M136.67 20.4783C136.843 19.8696 137.06 19.3043 137.319 18.7391L144.936 1.73913L145.282 2.43478L152.25 20.5217H136.67V20.4783ZM149.351 0H144.72L130.222 31.7826H138.401L137.925 30.913C136.324 28.1739 135.805 24.6522 136.411 21.4783H152.596L156.578 31.7826H162.507L149.351 0Z" fill="#F9F4EE"/>
<path d="M191.546 31.7826V0H186.526V14.8261H170.513V0H165.536V31.7826H170.513V15.8261H186.526V31.7826H191.546Z" fill="#F9F4EE"/>
<path d="M200.937 20.4783C201.11 19.8696 201.327 19.3043 201.586 18.7391L209.247 1.73913L209.593 2.43478L216.56 20.5217H200.937V20.4783ZM208.987 0L194.489 31.7826H202.668L202.192 30.913C200.591 28.1739 200.072 24.6522 200.678 21.4783H216.863L220.845 31.7826H226.774L213.618 0H208.987Z" fill="#F9F4EE"/>
<path d="M234.78 18.2174V1H240.666C248.802 1 248.11 18.2174 240.709 18.2174H234.78ZM241.402 19.2174C254.385 18.6522 255.207 0 240.796 0H229.803V31.7826H234.737V19.2174H236.035C242.267 19.2174 246.379 26.6522 246.984 31.7826H253C251.053 25.913 247.98 20.3043 241.402 19.2174Z" fill="#F9F4EE"/>
<path d="M110.141 45C109.968 45.2174 109.708 45.3043 109.362 45.3043H107.068V43.087H109.362C109.579 43.087 109.795 43.1304 109.925 43.2174C110.098 43.3043 110.184 43.4348 110.271 43.5652C110.358 43.7391 110.401 43.913 110.401 44.1304C110.401 44.5217 110.314 44.8261 110.141 45ZM111.742 45.4783C111.959 45.087 112.089 44.6522 112.089 44.1739C112.089 43.6956 112.002 43.3043 111.829 42.913C111.656 42.5652 111.353 42.2609 111.007 42.087C110.617 41.8696 110.141 41.7826 109.579 41.7826H105.381V49.4783H107.025V46.6957H109.146L110.487 49.4783H112.348L110.79 46.3913C111.223 46.1739 111.526 45.8696 111.742 45.4783Z" fill="#F9F4EE"/>
<path d="M119.576 46.2174H123.514V44.8261H119.576V43.1304H124.033V41.7826H117.931V49.4348H124.12V48.087H119.576V46.2174Z" fill="#F9F4EE"/>
<path d="M135.372 45.6087C135.155 45.4348 134.896 45.3043 134.593 45.1739C134.29 45.0435 134.03 44.9565 133.727 44.8696C133.424 44.7826 133.121 44.6956 132.862 44.6522C132.559 44.5652 132.342 44.5217 132.083 44.4348C131.866 44.3478 131.693 44.2609 131.563 44.1304C131.434 44 131.347 43.8696 131.347 43.6957C131.347 43.5217 131.39 43.3913 131.52 43.3043C131.65 43.1739 131.823 43.087 132.04 43.0435C132.256 43 132.516 42.9565 132.819 42.9565C133.121 42.9565 133.381 43 133.598 43.087C133.814 43.1739 133.987 43.2609 134.117 43.4348C134.247 43.5652 134.29 43.7391 134.29 43.9565V44.0435H135.891V43.913C135.891 43.5217 135.805 43.1739 135.632 42.913C135.458 42.6087 135.242 42.3913 134.982 42.2174C134.679 42.0435 134.377 41.913 133.987 41.8261C133.598 41.7391 133.208 41.6957 132.819 41.6957C132.386 41.6957 131.953 41.7391 131.563 41.8261C131.174 41.913 130.871 42.0435 130.568 42.2174C130.265 42.3913 130.049 42.6087 129.876 42.913C129.703 43.1739 129.616 43.5217 129.616 43.913C129.616 44.2609 129.703 44.5652 129.832 44.8261C129.962 45.087 130.135 45.3043 130.352 45.4348C130.568 45.6087 130.828 45.7391 131.131 45.8696C131.434 46 131.693 46.087 131.996 46.1739C132.299 46.2609 132.602 46.3478 132.862 46.3913C133.165 46.4783 133.381 46.5652 133.641 46.6522C133.857 46.7391 134.03 46.8696 134.16 46.9565C134.29 47.087 134.377 47.2609 134.377 47.4348C134.377 47.5652 134.376 47.6522 134.333 47.7391C134.29 47.8261 134.247 47.913 134.16 47.9565C134.074 48.0435 133.987 48.087 133.857 48.1304C133.727 48.1739 133.598 48.2174 133.424 48.2609C133.251 48.3043 133.078 48.3043 132.862 48.3043C132.516 48.3043 132.213 48.2609 131.996 48.1739C131.737 48.087 131.563 47.9565 131.434 47.7826C131.304 47.6087 131.217 47.4348 131.217 47.1739V47.087C131.217 47.0435 131.217 47 131.217 47H129.573C129.573 47.0435 129.573 47.0435 129.573 47.087V47.2174C129.573 47.6522 129.659 48 129.832 48.3043C130.005 48.6087 130.265 48.8696 130.568 49.0435C130.871 49.2609 131.217 49.3913 131.65 49.4783C132.04 49.5652 132.472 49.6087 132.905 49.6087C133.554 49.6087 134.117 49.5217 134.593 49.3478C135.069 49.1739 135.458 48.913 135.761 48.5652C136.064 48.2174 136.194 47.7391 136.194 47.1304C136.194 46.7826 136.108 46.4783 135.978 46.2609C135.761 46 135.588 45.7826 135.372 45.6087Z" fill="#F9F4EE"/>
<path d="M143.551 41.7826H141.907V49.4783H143.551V41.7826Z" fill="#F9F4EE"/>
<path d="M154.89 45.7826C154.89 46.1739 154.847 46.4783 154.76 46.7826C154.674 47.087 154.544 47.3043 154.371 47.4783C154.198 47.6522 153.981 47.8261 153.722 47.913C153.462 48 153.159 48.0435 152.813 48.0435H151.341V43.1304H152.813C153.159 43.1304 153.462 43.1739 153.722 43.2609C153.981 43.3478 154.198 43.5217 154.371 43.6957C154.544 43.8696 154.674 44.1304 154.76 44.3913C154.847 44.6956 154.89 45 154.89 45.3913V45.7826ZM154.847 42.1739C154.284 41.913 153.592 41.7391 152.813 41.7391H149.697V49.4348H152.813C153.592 49.4348 154.284 49.3043 154.847 49C155.409 48.7391 155.842 48.3043 156.145 47.7391C156.448 47.1739 156.578 46.4348 156.578 45.5652C156.578 44.6957 156.448 43.9565 156.145 43.3913C155.842 42.8696 155.409 42.4783 154.847 42.1739Z" fill="#F9F4EE"/>
<path d="M164.065 46.2174H167.96V44.8261H164.065V43.1304H168.479V41.7826H162.377V49.4348H168.566V48.087H164.065V46.2174Z" fill="#F9F4EE"/>
<path d="M179.558 45.913V46.6522H179.515C179.472 46.6087 179.472 46.5217 179.385 46.4348C179.342 46.3478 179.255 46.2609 179.212 46.1739C179.125 46.087 179.082 46 179.039 45.9565L175.966 41.8261H174.408V49.5217H175.966V44.5652H176.009C176.053 44.6522 176.096 44.7391 176.183 44.8696C176.269 45 176.356 45.1304 176.399 45.2174L179.558 49.4783H181.073V41.7826H179.515V45.913H179.558Z" fill="#F9F4EE"/>
<path d="M188.863 44.087C188.993 43.7391 189.252 43.4348 189.555 43.2609C189.858 43.087 190.248 43 190.724 43C191.07 43 191.373 43.087 191.633 43.2174C191.892 43.3478 192.109 43.5217 192.238 43.7826C192.368 44.0435 192.455 44.3478 192.455 44.6957H194.143C194.143 44 194.013 43.4348 193.71 43C193.407 42.5652 193.017 42.2174 192.498 42C191.979 41.7826 191.373 41.6522 190.724 41.6522C189.512 41.6522 188.603 42 187.954 42.6522C187.305 43.3043 186.959 44.3043 186.959 45.6522C186.959 46.5652 187.088 47.3043 187.391 47.913C187.694 48.5217 188.127 48.9565 188.69 49.2174C189.252 49.4783 189.945 49.6522 190.724 49.6522C191.373 49.6522 191.979 49.5217 192.498 49.3043C193.017 49.087 193.407 48.7391 193.71 48.3043C194.013 47.8696 194.143 47.3043 194.143 46.6087H192.541C192.541 46.9565 192.455 47.2609 192.325 47.5217C192.195 47.7826 191.979 47.9565 191.676 48.087C191.416 48.2174 191.07 48.2609 190.724 48.2609C190.248 48.2609 189.858 48.1739 189.555 48C189.252 47.8261 189.036 47.5652 188.863 47.1739C188.733 46.8261 188.646 46.3478 188.646 45.8261V45.4783C188.646 44.913 188.69 44.4783 188.863 44.087Z" fill="#F9F4EE"/>
<path d="M201.586 46.2174H205.525V44.8261H201.586V43.1304H206.044V41.7826H199.942V49.4348H206.087V48.087H201.586V46.2174Z" fill="#F9F4EE"/>
</svg>
