<svg width="66" height="66" viewBox="0 0 66 66" fill="none" xmlns="http://www.w3.org/2000/svg">
<g clip-path="url(#clip0_125_278)">
<path fill-rule="evenodd" clip-rule="evenodd" d="M61.2209 32.25C61.3065 32.3787 61.6067 32.4215 61.6067 32.4215C61.7351 32.4215 61.9921 32.25 61.9921 32.25L65.2066 29.0359C65.3781 28.95 65.3781 28.7784 65.3781 28.6073C63.3207 12.9216 50.2922 1.05026 34.4783 0.40741C34.264 0.40741 34.0497 0.535987 33.9641 0.750283C33.8782 0.964539 34.0925 1.35027 34.0925 1.35027L36.1067 3.32168C36.407 3.62165 36.5781 4.05024 36.5781 4.43594C36.5781 4.86453 36.407 5.25022 36.1067 5.5931L33.9641 7.73594C33.8354 7.86447 33.7499 8.07877 33.8354 8.29306C33.921 8.50736 34.0925 8.6359 34.3068 8.6359C45.2783 9.10735 54.5781 16.993 56.8922 27.7929C56.8922 27.8785 57.021 28.05 57.021 28.05L61.2209 32.25ZM7.73575 32.0772C7.86433 32.206 8.12144 32.2487 8.12144 32.2487L8.1643 32.206H8.33574C8.55004 32.1204 8.67857 31.9489 8.67857 31.7346C9.19289 20.7632 17.0357 11.4633 27.8355 9.14903C27.9215 9.14903 28.0926 9.02045 28.0926 9.02045L32.2926 4.82049C32.4213 4.69191 32.4641 4.56333 32.4641 4.4348C32.4641 4.30622 32.2926 4.04906 32.2926 4.04906L29.0785 0.83482C28.9498 0.663383 28.7783 0.663384 28.6071 0.663384C12.9214 2.76337 1.05007 15.7061 0.407227 31.5203C0.407227 31.7346 0.535804 31.9489 0.7501 32.0344C0.964356 32.1204 1.35009 31.9061 1.35009 31.9061L3.32149 29.9347C3.87862 29.3346 5.03578 29.3773 5.59291 29.9347L7.73575 32.0772ZM15.407 44.4217H15.4498H15.5356C15.6641 44.4217 15.8356 44.3361 15.9213 44.2502C20.4212 39.536 26.5497 36.9217 33.107 36.9217C39.6638 36.9217 45.7924 39.536 50.2922 44.2502C50.3782 44.3789 50.5497 44.4217 50.7208 44.4217C50.8923 44.3789 51.0211 44.2933 51.1066 44.1646C53.2068 40.8218 54.3211 36.9645 54.3211 32.9788C54.3211 21.2362 44.8069 11.722 33.0642 11.722C21.3212 11.722 11.807 21.2791 11.807 32.9788C11.807 37.0077 12.9213 40.8646 15.0213 44.1646C15.107 44.3361 15.2356 44.4217 15.407 44.4217ZM24.4498 26.079C24.4498 21.3648 28.3069 17.5505 33.021 17.5505C37.7783 17.5505 41.5924 21.3648 41.5924 26.079C41.5924 30.7935 37.7783 34.6504 33.021 34.6504C28.2641 34.6504 24.4498 30.7935 24.4498 26.079ZM17.7643 47.7192C21.8357 51.9192 27.2358 54.2337 33.0214 54.2337C38.807 54.2337 44.2068 51.9192 48.2784 47.7192C48.4499 47.5049 48.4499 47.2051 48.2784 46.9908C44.507 42.6193 38.8926 40.1337 33.0214 40.1337C27.1499 40.1337 21.5785 42.6193 17.7643 46.9908C17.55 47.2051 17.5929 47.5049 17.7643 47.7192ZM0.707241 37.3947C2.76436 53.0375 15.75 64.909 31.5641 65.5946L31.6069 65.5519C31.8212 65.5519 31.9927 65.4659 32.0783 65.252C32.1642 65.0377 31.9499 64.6519 31.9499 64.6519L29.9785 62.6805C29.3784 62.0376 29.3784 61.052 29.9785 60.4091L32.1214 58.2662C32.2498 58.1375 32.3357 57.9231 32.2498 57.7089C32.1642 57.4946 31.9927 57.3662 31.7784 57.3662C20.8071 56.8949 11.5072 49.0091 9.19293 38.2091C9.19293 38.1236 9.06435 37.952 9.06435 37.952L4.86439 33.7521C4.65009 33.5378 4.09296 33.7521 4.09296 33.7521L0.878678 36.9665C0.707241 37.0521 0.707241 37.2236 0.707241 37.3947ZM36.9639 65.1689C37.0926 65.2972 37.3497 65.3404 37.3497 65.3404L37.3069 65.3832H37.3925C53.0781 63.3258 64.9495 50.2977 65.5924 34.4834C65.5924 34.2691 65.4637 34.0548 65.2494 33.9692C65.0351 33.8833 64.6493 34.0976 64.6493 34.0976L62.721 36.069C62.0353 36.6691 61.0066 36.5832 60.4065 36.069L58.2636 33.926C58.1352 33.7977 57.8781 33.7117 57.7066 33.7977C57.4923 33.8833 57.3636 34.0548 57.3636 34.2691C56.8922 45.2406 49.0069 54.5404 38.2069 56.8545C38.1209 56.8545 37.9498 56.9833 37.9498 56.9833L33.7494 61.1832C33.6211 61.3116 33.5783 61.4403 33.5783 61.569C33.5783 61.6974 33.7494 61.9545 33.7494 61.9545L36.9639 65.1689ZM27.664 26.039C27.664 28.9964 30.064 31.3964 33.0214 31.3964C35.9784 31.3964 38.3784 28.9964 38.3784 26.039C38.3784 23.082 35.9784 20.7249 33.0214 20.7249C30.064 20.7249 27.664 23.082 27.664 26.039Z" fill="white"/>
</g>
<defs>
<clipPath id="clip0_125_278">
<rect width="66" height="66" fill="white"/>
</clipPath>
</defs>
</svg>
