<svg width="70" height="70" viewBox="0 0 70 70" fill="none" xmlns="http://www.w3.org/2000/svg">
<path fill-rule="evenodd" clip-rule="evenodd" d="M64.0102 60.2109H56.884V67.1289C56.8843 67.3101 56.9565 67.4838 57.0846 67.6119C57.2127 67.74 57.3864 67.8121 57.5676 67.8125H64.0102C65.0182 67.8125 65.9849 67.4121 66.6977 66.6993C67.4105 65.9865 67.811 65.0197 67.811 64.0117C67.811 63.0037 67.4105 62.0369 66.6977 61.3242C65.9849 60.6114 65.0182 60.2109 64.0102 60.2109ZM2.18596 50.2363C3.23027 49.2995 4.58381 48.7814 5.98674 48.7815H9.78752V2.87109C9.78716 2.6899 9.71502 2.51624 9.5869 2.38812C9.45878 2.26 9.28511 2.18786 9.10393 2.1875H5.98674C4.97982 2.1911 4.01517 2.5927 3.30316 3.3047C2.59115 4.01671 2.18956 4.98136 2.18596 5.98828V50.2366V50.2363ZM34.6299 11.1932L22.3365 21.16L23.0723 22.0675L34.3866 12.8937C34.5566 12.7518 34.7706 12.6734 34.992 12.6719C35.2135 12.6705 35.4285 12.7461 35.6003 12.8857L46.9244 22.067L47.6601 21.1595C43.5781 17.85 39.3978 14.564 35.3717 11.1981C35.2683 11.1104 35.1374 11.0618 35.0018 11.0608C34.8662 11.0598 34.7346 11.1064 34.6299 11.1925V11.1932ZM67.8056 11.0887C67.8056 8.77393 66.5236 6.94518 64.0102 6.94518H63.0644V27.6056C63.0716 27.7521 63.0447 27.8983 62.9859 28.0327L60.1334 34.5754C60.0642 34.7479 59.9463 34.8966 59.794 35.0032C59.6416 35.1098 59.4615 35.1696 59.2757 35.1754C59.0899 35.1812 58.9064 35.1327 58.7477 35.0359C58.5891 34.939 58.4621 34.798 58.3823 34.63L55.2862 28.1211C55.2052 27.9778 55.1628 27.816 55.1631 27.6514V6.94531H11.7012V49.739C11.7012 49.9928 11.6003 50.2362 11.4209 50.4157C11.2414 50.5952 10.998 50.696 10.7441 50.696H5.98633C4.9783 50.696 4.01155 51.0964 3.29877 51.8092C2.58599 52.522 2.18555 53.4888 2.18555 54.4968C2.18555 55.5048 2.58599 56.4715 3.29877 57.1843C4.01155 57.8971 4.9783 58.2976 5.98633 58.2976H15.9064V33.1496C15.9069 32.9433 15.974 32.7427 16.0977 32.5776C16.2214 32.4125 16.3952 32.2917 16.5931 32.2333C16.7909 32.175 17.0024 32.182 17.1959 32.2535C17.3895 32.325 17.5548 32.4571 17.6672 32.6301L36.3404 58.2969H64.0102C65.4145 58.2968 66.7692 58.8159 67.8138 59.7544L67.8056 11.0887ZM49.7422 21.6218L47.8049 24.0115C47.7259 24.1087 47.6284 24.1894 47.5182 24.249C47.408 24.3085 47.2871 24.3458 47.1624 24.3586C47.0378 24.3714 46.9119 24.3596 46.7918 24.3238C46.6718 24.2879 46.5599 24.2288 46.4627 24.1497L45.579 23.4332V36.8897C45.5789 37.486 45.342 38.0577 44.9204 38.4793C44.4988 38.9009 43.927 39.1378 43.3308 39.1378H26.6657C26.0695 39.1377 25.4978 38.9008 25.0762 38.4793C24.6547 38.0577 24.4178 37.4859 24.4178 36.8897V23.4336L23.5339 24.1501C23.3376 24.3097 23.0859 24.3848 22.8342 24.3589C22.5826 24.3329 22.3515 24.2081 22.1919 24.0118L20.2544 21.6222C20.0948 21.4259 20.0197 21.1742 20.0457 20.9225C20.0716 20.6708 20.1965 20.4397 20.3928 20.28L33.4261 9.71318C33.8753 9.34878 34.4372 9.15161 35.0157 9.15535C35.5941 9.15909 36.1534 9.36351 36.5979 9.73369L49.604 20.28C49.8002 20.4397 49.9249 20.6707 49.9508 20.9223C49.9767 21.1739 49.9017 21.4255 49.7422 21.6218ZM28.6151 25.4447V37.2237H26.6657C26.6219 37.2238 26.5784 37.2152 26.5379 37.1984C26.4974 37.1816 26.4605 37.157 26.4295 37.126C26.3985 37.095 26.3739 37.0581 26.3572 37.0176C26.3404 36.977 26.3318 36.9336 26.3319 36.8897V21.8813L34.9983 14.8549L43.6648 21.8813V36.8897C43.6648 36.9336 43.6562 36.9771 43.6395 37.0176C43.6227 37.0582 43.5981 37.095 43.5671 37.126C43.536 37.1571 43.4992 37.1816 43.4587 37.1984C43.4181 37.2152 43.3747 37.2238 43.3308 37.2237H41.3814V25.4447C41.3814 25.1909 41.2806 24.9475 41.1011 24.768C40.9217 24.5885 40.6782 24.4877 40.4244 24.4877H29.5721C29.3183 24.4877 29.0748 24.5885 28.8954 24.768C28.7159 24.9475 28.6151 25.1909 28.6151 25.4447ZM39.4674 26.4018H30.5291V37.2237H39.4672V26.4018H39.4674ZM57.61 28.559L59.2096 31.9214L60.6755 28.559H57.61ZM57.0772 7.58023V26.645H61.1578V7.58023H57.0772ZM40.5834 67.3783L18.3151 36.7693C18.2811 36.7226 18.2332 36.6879 18.1783 36.6701C18.1234 36.6523 18.0643 36.6523 18.0094 36.6702C17.9545 36.688 17.9067 36.7228 17.8728 36.7695C17.8388 36.8162 17.8206 36.8725 17.8206 36.9302V67.5391C17.8206 67.6116 17.8494 67.6811 17.9007 67.7324C17.9519 67.7837 18.0215 67.8125 18.094 67.8125H40.3623C40.4128 67.8125 40.4622 67.7985 40.5052 67.7722C40.5482 67.7458 40.583 67.7081 40.6059 67.6631C40.6288 67.6182 40.6388 67.5678 40.6348 67.5175C40.6309 67.4673 40.6131 67.4191 40.5834 67.3783ZM31.7227 64.0983H22.4918C22.238 64.0983 21.9946 63.9974 21.8151 63.818C21.6356 63.6385 21.5348 63.3951 21.5348 63.1412V50.4529C21.5356 50.2513 21.6 50.0551 21.7189 49.8923C21.8378 49.7294 22.005 49.6083 22.1968 49.5462C22.3886 49.484 22.5952 49.484 22.7869 49.5462C22.9787 49.6084 23.146 49.7295 23.2648 49.8924L32.4648 62.538C32.5782 62.6785 32.6495 62.8482 32.6707 63.0275C32.6919 63.2068 32.662 63.3885 32.5844 63.5515C32.5069 63.7146 32.3848 63.8524 32.2324 63.9491C32.0799 64.0459 31.9032 64.0976 31.7227 64.0983ZM61.1541 4.22598C61.1541 3.68534 60.9394 3.16684 60.5571 2.78456C60.1748 2.40227 59.6563 2.1875 59.1156 2.1875C58.575 2.1875 58.0565 2.40227 57.6742 2.78456C57.2919 3.16684 57.0772 3.68534 57.0772 4.22598V5.66617H61.1578L61.1541 4.22598Z" fill="white"/>
</svg>
