<svg width="66" height="66" viewBox="0 0 66 66" fill="none" xmlns="http://www.w3.org/2000/svg">
<path d="M55.9688 46.125C53.736 46.1234 51.5697 46.8844 49.8284 48.2819L43.0177 41.4711C44.8848 39.2635 45.9669 36.4988 46.0944 33.6103L59.4863 33.1094C59.7682 33.8339 60.2973 34.4354 60.98 34.8074C61.6627 35.1795 62.455 35.298 63.2167 35.1422C63.9784 34.9864 64.6604 34.5662 65.1421 33.9559C65.6239 33.3457 65.8743 32.5847 65.849 31.8077C65.8238 31.0306 65.5245 30.2875 65.0041 29.7098C64.4838 29.1322 63.7759 28.7571 63.0057 28.6511C62.2355 28.5451 61.4526 28.7148 60.7955 29.1304C60.1384 29.546 59.6495 30.1805 59.4152 30.9219L46.0211 31.4173C45.7945 29.5344 45.1621 27.7229 44.1675 26.1081C43.173 24.4932 41.8399 23.1133 40.2603 22.0636L43.4191 16.3192C44.7185 16.7242 46.122 16.6321 47.3574 16.0608C48.5928 15.4895 49.5719 14.4797 50.1049 13.2273C50.6379 11.9749 50.6867 10.5692 50.2419 9.28283C49.797 7.99649 48.8903 6.92121 47.6975 6.2656C46.5047 5.60998 45.111 5.42075 43.7866 5.73463C42.4622 6.0485 41.3016 6.8431 40.5299 7.96429C39.7582 9.08547 39.4305 10.4533 39.6102 11.8025C39.79 13.1516 40.4645 14.3859 41.5028 15.2659L38.3419 21.0136C36.0885 20.0042 33.5953 19.6534 31.1509 20.0018C28.7064 20.3502 26.4106 21.3836 24.5289 22.9823L17.7181 16.1705C19.291 14.2023 20.0505 11.7066 19.8406 9.19598C19.6308 6.68533 18.4676 4.35033 16.5899 2.67058C14.7122 0.990819 12.2625 0.0938302 9.74409 0.163845C7.22566 0.23386 4.82963 1.26556 3.04815 3.04705C1.26666 4.82854 0.234958 7.22456 0.164944 9.74299C0.0949288 12.2614 0.991919 14.7111 2.67168 16.5888C4.35143 18.4665 6.68643 19.6297 9.19708 19.8395C11.7077 20.0494 14.2034 19.2899 16.1716 17.717L22.9823 24.5289C20.9734 26.894 19.8719 29.8969 19.875 33C19.8782 33.7855 19.9514 34.5692 20.0938 35.3417L8.35016 38.5037C7.82042 37.5913 6.97683 36.9028 5.97676 36.5666C4.9767 36.2304 3.88848 36.2696 2.91516 36.6767C1.94183 37.0839 1.14988 37.8312 0.687066 38.7794C0.224254 39.7275 0.122193 40.8116 0.399928 41.8295C0.677664 42.8473 1.31622 43.7294 2.19646 44.311C3.0767 44.8927 4.13849 45.1342 5.18372 44.9906C6.22896 44.8469 7.18623 44.3279 7.87695 43.5304C8.56766 42.7329 8.94462 41.7113 8.9375 40.6562C8.9375 40.6409 8.9375 40.6278 8.9375 40.6125L20.6713 37.4537C21.6885 40.2628 23.6324 42.6415 26.1827 44.1978L22.8883 50.7855C21.307 50.2958 19.5995 50.4183 18.1043 51.1286C16.609 51.8389 15.4354 53.0851 14.8159 54.6202C14.1965 56.1553 14.1766 57.8671 14.7601 59.4162C15.3436 60.9653 16.4879 62.2386 17.9662 62.9835C19.4445 63.7284 21.1487 63.8906 22.7409 63.4379C24.3332 62.9852 25.6972 61.9507 26.5624 60.5395C27.4277 59.1283 27.7311 57.4435 27.4123 55.8191C27.0936 54.1947 26.1761 52.7494 24.8417 51.7698L28.1361 45.1822C30.3465 46.0708 32.7577 46.3388 35.1093 45.9573C37.4609 45.5759 39.6637 44.5594 41.4798 43.0176L48.2906 49.8284C46.8991 51.5721 46.141 53.7367 46.1408 55.9675C46.1405 58.1984 46.898 60.3632 48.2891 62.1072C49.6803 63.8512 51.6225 65.0709 53.7977 65.5665C55.9728 66.0621 58.2517 65.8042 60.2611 64.835C62.2704 63.8658 63.8909 62.2429 64.8571 60.2321C65.8233 58.2213 66.0779 55.942 65.579 53.7676C65.0802 51.5933 63.8576 49.6528 62.1116 48.2643C60.3655 46.8757 58.1996 46.1214 55.9688 46.125ZM15.5 15.5H4.5625C4.5625 14.0496 5.13867 12.6586 6.16426 11.633C7.18985 10.6074 8.58085 10.0312 10.0313 10.0312C9.38228 10.0312 8.74789 9.8388 8.20829 9.47826C7.66869 9.11771 7.24812 8.60525 6.99977 8.00568C6.75142 7.40611 6.68644 6.74636 6.81305 6.10986C6.93966 5.47336 7.25217 4.88869 7.71106 4.4298C8.16995 3.97091 8.75461 3.6584 9.39111 3.5318C10.0276 3.40519 10.6874 3.47017 11.2869 3.71852C11.8865 3.96687 12.399 4.38743 12.7595 4.92703C13.1201 5.46663 13.3125 6.10103 13.3125 6.75C13.3125 7.62024 12.9668 8.45484 12.3514 9.07019C11.7361 9.68554 10.9015 10.0312 10.0313 10.0312C11.4817 10.0312 12.8727 10.6074 13.8982 11.633C14.9238 12.6586 15.5 14.0496 15.5 15.5ZM33 24.25C33.8653 24.25 34.7112 24.5066 35.4306 24.9873C36.1501 25.468 36.7108 26.1513 37.042 26.9508C37.3731 27.7502 37.4597 28.6298 37.2909 29.4785C37.1221 30.3272 36.7054 31.1067 36.0936 31.7186C35.4817 32.3304 34.7022 32.7471 33.8535 32.9159C33.0049 33.0847 32.1252 32.9981 31.3258 32.667C30.5263 32.3358 29.8431 31.7751 29.3623 31.0556C28.8816 30.3361 28.625 29.4903 28.625 28.625C28.625 27.4647 29.0859 26.3519 29.9064 25.5314C30.7269 24.7109 31.8397 24.25 33 24.25ZM26.4375 40.6562C26.4375 38.9158 27.1289 37.2466 28.3596 36.0159C29.5903 34.7851 31.2595 34.0937 33 34.0937C34.7405 34.0937 36.4097 34.7851 37.6404 36.0159C38.8711 37.2466 39.5625 38.9158 39.5625 40.6562H26.4375ZM50.5 61.4375C50.5 59.9871 51.0762 58.5961 52.1018 57.5705C53.1273 56.5449 54.5183 55.9687 55.9688 55.9687C55.3198 55.9687 54.6854 55.7763 54.1458 55.4157C53.6062 55.0552 53.1856 54.5427 52.9373 53.9432C52.6889 53.3436 52.6239 52.6839 52.7505 52.0474C52.8772 51.4109 53.1897 50.8262 53.6486 50.3673C54.1075 49.9084 54.6921 49.5959 55.3286 49.4693C55.9651 49.3427 56.6249 49.4077 57.2244 49.656C57.824 49.9044 58.3365 50.3249 58.697 50.8645C59.0576 51.4041 59.25 52.0385 59.25 52.6875C59.25 53.5577 58.9043 54.3923 58.2889 55.0077C57.6736 55.623 56.839 55.9687 55.9688 55.9687C57.4192 55.9687 58.8102 56.5449 59.8357 57.5705C60.8613 58.5961 61.4375 59.9871 61.4375 61.4375H50.5Z" fill="white"/>
</svg>
