<svg width="34" height="34" viewBox="0 0 34 34" fill="none" xmlns="http://www.w3.org/2000/svg">
<path fill-rule="evenodd" clip-rule="evenodd" d="M24.1382 22.1346C25.8838 19.9524 26.9276 17.1844 26.9276 14.1726C26.9276 7.12772 21.2167 1.41675 14.1718 1.41675C7.12699 1.41675 1.41602 7.12772 1.41602 14.1726C1.41602 21.2174 7.12699 26.9284 14.1718 26.9284C17.1836 26.9284 19.9517 25.8846 22.1338 24.139L30.1632 32.1683C30.7167 32.7218 31.6141 32.7218 32.1676 32.1683C32.7211 31.6148 32.7211 30.7174 32.1676 30.1639L24.1382 22.1346ZM14.1718 24.108C8.68465 24.108 4.23642 19.6597 4.23642 14.1726C4.23642 8.68539 8.68465 4.23715 14.1718 4.23715C19.659 4.23715 24.1072 8.68539 24.1072 14.1726C24.1072 19.6597 19.659 24.108 14.1718 24.108Z" fill="#b46650"/>
</svg>
